<svg xmlns="http://www.w3.org/2000/svg" xmlns:xlink="http://www.w3.org/1999/xlink" width="500" zoomAndPan="magnify" viewBox="0 0 375 374.999991" height="500" preserveAspectRatio="xMidYMid meet" version="1.0"><defs><g/><clipPath id="id1"><path d="M 106.046875 151.285156 L 268.796875 151.285156 L 268.796875 197.785156 L 106.046875 197.785156 Z M 106.046875 151.285156 " clip-rule="nonzero"/></clipPath><clipPath id="id2"><path d="M 259.253906 191.101562 L 269.003906 191.101562 L 269.003906 204.601562 L 259.253906 204.601562 Z M 259.253906 191.101562 " clip-rule="nonzero"/></clipPath><clipPath id="id3"><path d="M 142 72 L 220 72 L 220 205.484375 L 142 205.484375 Z M 142 72 " clip-rule="nonzero"/></clipPath></defs><g clip-path="url(#id1)"><path fill="#1e1c1c" d="M 268.722656 173.492188 C 268.683594 172.453125 268.566406 171.207031 268.472656 170.714844 C 268.378906 170.21875 268.234375 169.253906 268.160156 168.554688 C 267.933594 166.601562 267.714844 166.257812 266.578125 166.109375 C 265.765625 165.996094 262.621094 166.351562 261.851562 166.644531 C 261.488281 166.78125 259.777344 167.125 259.726562 167.074219 C 259.707031 167.054688 259.707031 166.75 259.738281 166.414062 C 259.808594 165.628906 259.59375 163.867188 259.351562 163.320312 C 258.894531 162.261719 258.75 162.242188 252.480469 162.199219 C 247.617188 162.167969 247.304688 162.175781 246.960938 162.367188 C 246.511719 162.597656 245.816406 163.257812 245.816406 163.445312 C 245.816406 163.519531 245.753906 163.582031 245.691406 163.582031 C 245.617188 163.582031 241.597656 163.59375 236.753906 163.605469 L 227.957031 163.636719 L 227.382812 163.40625 C 226.507812 163.046875 225.644531 162.28125 225.007812 161.328125 C 224.207031 160.121094 222.644531 158.058594 222.082031 157.46875 C 221.824219 157.1875 221.375 156.789062 221.082031 156.578125 C 220.800781 156.367188 220.261719 155.929688 219.90625 155.59375 C 218.949219 154.703125 218.34375 154.335938 216.542969 153.539062 C 213.980469 152.394531 211.511719 151.871094 207.078125 151.523438 C 204.535156 151.316406 203.722656 151.292969 199.839844 151.355469 C 197.433594 151.386719 195.019531 151.460938 194.46875 151.515625 C 193.925781 151.566406 192.238281 151.671875 190.71875 151.734375 C 189.207031 151.796875 187.363281 151.890625 186.613281 151.945312 C 185.875 152.007812 183.03125 152.046875 180.316406 152.046875 C 177.597656 152.058594 174.359375 152.101562 173.128906 152.152344 C 164.132812 152.550781 162.382812 152.582031 157.144531 152.480469 C 154.28125 152.414062 143.035156 152.363281 132.152344 152.34375 C 112.523438 152.3125 112.367188 152.3125 112.023438 152.519531 C 111.691406 152.71875 110.953125 153.664062 110.472656 154.480469 C 110.347656 154.691406 110.085938 155.394531 109.878906 156.035156 C 109.515625 157.15625 109.421875 157.394531 108.765625 158.84375 C 108.597656 159.210938 108.464844 159.523438 108.464844 159.554688 C 108.464844 159.671875 107.566406 161.746094 107.097656 162.703125 C 106.816406 163.289062 106.566406 163.90625 106.535156 164.066406 C 106.109375 166.59375 106.046875 167.117188 106.109375 167.859375 C 106.183594 168.804688 106.339844 173.480469 106.472656 178.945312 C 106.578125 182.96875 106.597656 183.167969 107.109375 184.691406 C 107.234375 185.027344 107.359375 185.832031 107.421875 186.503906 C 107.503906 187.542969 107.566406 187.816406 107.871094 188.464844 C 108.066406 188.882812 108.285156 189.503906 108.359375 189.847656 C 108.472656 190.425781 109.484375 192.796875 109.921875 193.519531 C 110.023438 193.695312 110.273438 194.390625 110.472656 195.070312 C 111.066406 197.117188 111.117188 197.136719 114.378906 197.136719 C 116.199219 197.136719 117.136719 197.1875 118.3125 197.347656 C 120.460938 197.640625 126.34375 197.777344 132.207031 197.648438 C 134.695312 197.609375 140.109375 197.515625 144.234375 197.460938 C 151.480469 197.355469 155.480469 197.242188 158.863281 197.03125 C 159.75 196.96875 164.082031 196.925781 168.496094 196.925781 C 176.492188 196.925781 178.441406 196.980469 183.492188 197.378906 C 185.742188 197.546875 198.519531 197.546875 203.328125 197.367188 C 208.566406 197.179688 212.378906 196.949219 213.585938 196.757812 C 214.742188 196.570312 216.71875 195.941406 217.886719 195.386719 C 218.75 194.976562 219.4375 194.335938 220.667969 192.785156 C 221.082031 192.269531 221.550781 191.726562 221.707031 191.578125 C 222.113281 191.203125 222.71875 190.351562 223.019531 189.742188 C 223.375 189.011719 224.144531 188.253906 225.46875 187.375 C 227.277344 186.167969 228.164062 185.800781 230.664062 185.226562 C 232.109375 184.898438 234.902344 184.648438 238.214844 184.554688 C 240.015625 184.5 242.304688 184.429688 243.296875 184.386719 C 244.929688 184.324219 245.117188 184.332031 245.449219 184.511719 C 245.730469 184.660156 245.824219 184.796875 245.878906 185.078125 C 245.917969 185.277344 246.011719 185.570312 246.097656 185.726562 C 246.386719 186.324219 246.441406 186.335938 251.355469 186.355469 C 256.46875 186.390625 258.582031 186.273438 259.019531 185.949219 C 259.445312 185.625 259.675781 185.058594 259.800781 183.964844 L 259.925781 182.949219 L 263.738281 183.023438 L 267.539062 183.085938 L 267.902344 182.855469 C 268.097656 182.71875 268.371094 182.382812 268.515625 182.089844 C 268.777344 181.566406 268.777344 181.554688 268.785156 178.472656 C 268.796875 176.773438 268.765625 174.53125 268.722656 173.492188 Z M 267.578125 181.597656 L 267.371094 182.070312 L 265.789062 182.003906 C 264.921875 181.964844 263.214844 181.933594 261.996094 181.933594 L 259.789062 181.933594 L 259.664062 181.019531 C 259.519531 179.980469 259.570312 176.027344 259.777344 173.4375 C 259.839844 172.601562 259.871094 171.078125 259.851562 170.050781 C 259.820312 168.007812 259.769531 168.175781 260.496094 168.039062 C 260.695312 168.007812 261.425781 167.839844 262.113281 167.671875 C 263.621094 167.304688 265.078125 167.117188 266.070312 167.167969 C 266.734375 167.199219 266.808594 167.222656 266.921875 167.472656 C 266.996094 167.621094 267.101562 168.238281 267.164062 168.835938 C 267.214844 169.433594 267.339844 170.28125 267.421875 170.714844 C 267.515625 171.207031 267.621094 172.683594 267.683594 174.699219 C 267.746094 176.457031 267.808594 177.96875 267.839844 178.054688 C 267.859375 178.136719 267.859375 178.871094 267.828125 179.667969 C 267.796875 180.820312 267.734375 181.230469 267.578125 181.597656 Z M 258.613281 176.058594 C 258.507812 177.488281 258.53125 179.972656 258.65625 181.542969 L 258.675781 181.839844 L 253.363281 181.839844 C 247.054688 181.847656 247.5625 181.859375 247.347656 181.691406 C 247.011719 181.449219 246.648438 180.191406 246.429688 178.492188 C 246.199219 176.742188 246.222656 176.101562 246.574219 172.339844 L 246.699219 170.976562 L 247.117188 170.902344 C 248.792969 170.597656 251.59375 170.019531 252.636719 169.769531 C 253.324219 169.589844 254.542969 169.339844 255.34375 169.203125 C 256.5625 168.992188 257.414062 168.785156 258.539062 168.4375 C 258.664062 168.394531 258.726562 168.46875 258.769531 168.6875 C 258.84375 169.140625 258.738281 174.109375 258.613281 176.058594 Z M 258.601562 184.796875 C 258.539062 184.953125 258.394531 185.097656 258.269531 185.128906 C 257.457031 185.308594 247.667969 185.464844 247.253906 185.296875 C 247.042969 185.226562 246.949219 185.097656 246.910156 184.835938 C 246.792969 184.230469 246.480469 183.832031 245.886719 183.546875 L 245.347656 183.285156 L 241.859375 183.347656 C 235.753906 183.453125 232.277344 183.757812 229.570312 184.40625 C 227.589844 184.878906 226.894531 185.195312 224.882812 186.515625 C 223.414062 187.488281 222.5625 188.339844 222.03125 189.355469 C 221.800781 189.808594 221.332031 190.457031 220.894531 190.929688 C 220.480469 191.371094 219.875 192.070312 219.5625 192.46875 C 218.75 193.496094 217.9375 194.230469 217.335938 194.503906 C 216.417969 194.914062 214.417969 195.542969 213.523438 195.710938 C 210.179688 196.339844 189.21875 196.71875 182.710938 196.265625 C 181.253906 196.171875 179.097656 196.035156 177.929688 195.984375 C 175.203125 195.847656 161.707031 195.847656 158.945312 195.984375 C 157.78125 196.035156 155.855469 196.128906 154.644531 196.191406 C 153.449219 196.253906 148.917969 196.351562 144.597656 196.414062 C 140.277344 196.464844 135.984375 196.558594 135.070312 196.613281 C 134.152344 196.675781 130.570312 196.695312 127.101562 196.675781 C 121.292969 196.632812 120.679688 196.613281 119.1875 196.390625 C 118 196.222656 116.835938 196.140625 114.792969 196.097656 C 112.503906 196.046875 111.984375 196.003906 111.867188 195.878906 C 111.796875 195.792969 111.597656 195.25 111.441406 194.671875 C 111.273438 194.105469 110.921875 193.183594 110.648438 192.628906 C 109.835938 190.980469 109.523438 190.289062 109.453125 189.902344 C 109.335938 189.304688 109.027344 188.414062 108.753906 187.855469 C 108.546875 187.449219 108.472656 187.101562 108.421875 186.230469 C 108.371094 185.507812 108.253906 184.835938 108.078125 184.292969 C 107.933594 183.832031 107.765625 183.285156 107.714844 183.085938 C 107.660156 182.886719 107.566406 181 107.527344 178.890625 C 107.390625 173.429688 107.234375 168.785156 107.152344 167.988281 C 107.109375 167.535156 107.140625 166.925781 107.246094 166.257812 C 107.339844 165.679688 107.441406 164.988281 107.472656 164.714844 C 107.503906 164.441406 107.777344 163.738281 108.058594 163.140625 C 108.347656 162.542969 108.671875 161.851562 108.777344 161.589844 C 109.160156 160.582031 109.921875 158.789062 110.160156 158.289062 C 110.296875 158.003906 110.546875 157.363281 110.703125 156.871094 C 110.859375 156.378906 111.054688 155.792969 111.140625 155.5625 C 111.359375 154.941406 112.328125 153.539062 112.628906 153.410156 C 112.804688 153.339844 119.886719 153.339844 136.007812 153.433594 C 165.277344 153.578125 164.289062 153.589844 168.546875 153.371094 C 170.578125 153.265625 174.566406 153.171875 177.710938 153.140625 C 184.679688 153.078125 190.519531 152.878906 194.21875 152.5625 C 200.289062 152.046875 207.429688 152.300781 211.847656 153.203125 C 214.199219 153.675781 214.492188 153.757812 215.773438 154.335938 C 217.980469 155.320312 218.15625 155.425781 218.929688 156.160156 C 219.199219 156.410156 219.75 156.882812 220.144531 157.1875 C 220.550781 157.492188 221.011719 157.867188 221.175781 158.015625 C 221.449219 158.265625 223.945312 161.539062 223.945312 161.644531 C 223.945312 161.777344 224.75 162.839844 225.082031 163.140625 C 225.726562 163.730469 226.5625 164.234375 227.195312 164.441406 C 227.777344 164.621094 228.351562 164.632812 236.714844 164.632812 L 245.605469 164.632812 L 245.605469 170.082031 L 245.324219 170.148438 C 243.753906 170.492188 242.941406 171.078125 242.640625 172.097656 C 242.421875 172.839844 242.253906 175.421875 242.335938 176.792969 C 242.421875 178.261719 242.703125 179.214844 243.203125 179.75 C 243.617188 180.203125 244.054688 180.347656 245.066406 180.359375 C 245.535156 180.359375 245.628906 180.390625 245.699219 180.601562 C 245.753906 180.726562 245.898438 181.113281 246.023438 181.460938 C 246.367188 182.363281 246.742188 182.730469 247.472656 182.855469 C 247.824219 182.917969 249.480469 182.9375 251.699219 182.90625 C 253.707031 182.875 256.132812 182.886719 257.09375 182.929688 L 258.84375 183 L 258.78125 183.757812 C 258.738281 184.164062 258.664062 184.628906 258.601562 184.796875 Z M 257.738281 167.589844 C 257.226562 167.746094 256.21875 167.976562 255.5 168.101562 C 254.78125 168.226562 253.542969 168.480469 252.738281 168.679688 C 251.105469 169.054688 247.898438 169.714844 247.148438 169.820312 L 246.648438 169.882812 L 246.699219 166.875 C 246.753906 163.960938 246.761719 163.84375 246.980469 163.613281 C 247.386719 163.183594 247.84375 163.132812 250.867188 163.207031 C 252.417969 163.246094 254.519531 163.269531 255.550781 163.269531 C 257.34375 163.269531 258.125 163.351562 258.332031 163.5625 C 258.507812 163.738281 258.707031 165.207031 258.695312 166.246094 L 258.675781 167.292969 Z M 245.398438 173.964844 C 245.261719 176.617188 245.253906 176.722656 245.347656 178.09375 L 245.429688 179.34375 L 244.785156 179.289062 C 244.023438 179.238281 243.835938 179.082031 243.574219 178.316406 C 243.335938 177.601562 243.253906 175.460938 243.410156 173.953125 C 243.554688 172.539062 243.679688 172.054688 243.980469 171.773438 C 244.222656 171.550781 245.066406 171.238281 245.417969 171.238281 C 245.617188 171.238281 245.628906 171.277344 245.566406 171.6875 C 245.535156 171.929688 245.460938 172.957031 245.398438 173.964844 Z M 245.398438 173.964844 " fill-opacity="1" fill-rule="nonzero"/></g><g clip-path="url(#id2)"><path fill="#a02222" d="M 264.128906 191.109375 C 262.179688 194.902344 259.253906 196.886719 259.253906 199.777344 C 259.253906 202.433594 261.4375 204.589844 264.128906 204.589844 C 266.820312 204.589844 269.003906 202.433594 269.003906 199.777344 C 269.003906 196.886719 266.078125 194.960938 264.128906 191.109375 Z M 264.128906 191.109375 " fill-opacity="1" fill-rule="nonzero"/></g><path fill="#a02222" d="M 194.390625 108.285156 C 193.714844 112.996094 192.613281 117.605469 190.878906 122.074219 C 189.628906 125.285156 188.0625 128.324219 185.890625 131.015625 C 183.855469 133.535156 181.476562 135.558594 178.542969 136.722656 C 176.308594 137.3125 174.042969 137.707031 171.742188 137.902344 L 171.738281 137.902344 C 171.585938 137.917969 171.4375 137.929688 171.289062 137.9375 C 170.945312 137.964844 170.601562 137.988281 170.257812 138.003906 C 170.25 137.925781 170.242188 137.847656 170.234375 137.769531 C 169.347656 137.527344 168.65625 137.359375 167.976562 137.164062 C 163.917969 135.96875 160.695312 133.515625 157.929688 130.410156 C 153.820312 125.78125 151.363281 120.328125 150.132812 114.304688 C 149.046875 109.015625 148.753906 103.683594 149.0625 98.300781 C 149.417969 98.238281 149.78125 98.1875 150.148438 98.148438 C 153.578125 97.773438 157.109375 98.308594 160.238281 99.777344 C 164.917969 101.972656 168.359375 106.140625 173.128906 108.179688 C 176.144531 109.46875 179.382812 109.734375 182.625 109.582031 C 183.175781 109.554688 183.726562 109.515625 184.277344 109.46875 C 185.960938 109.324219 187.636719 109.09375 189.277344 108.863281 C 190.570312 108.679688 191.867188 108.449219 193.167969 108.335938 L 193.28125 108.324219 C 193.648438 108.292969 194.019531 108.277344 194.390625 108.285156 Z M 194.390625 108.285156 " fill-opacity="1" fill-rule="nonzero"/><g clip-path="url(#id3)"><path fill="#1e1c1c" d="M 213.519531 177.304688 C 211.109375 176.269531 208.667969 176.210938 206.167969 176.480469 C 202.648438 176.859375 199.234375 177.738281 195.929688 178.980469 C 191.871094 180.503906 187.84375 182.125 183.828125 183.761719 C 183 184.097656 182.289062 184.148438 181.511719 183.699219 C 180.230469 182.964844 178.878906 182.335938 177.644531 181.527344 C 174.148438 179.242188 171.878906 176.0625 171.058594 171.929688 C 170.773438 170.472656 170.570312 169.003906 170.453125 167.523438 C 170.0625 162.855469 170.667969 158.226562 171.125 153.59375 C 171.632812 148.453125 172.15625 143.316406 171.285156 137.9375 C 171.285156 137.933594 171.285156 137.925781 171.285156 137.921875 C 171.445312 137.910156 171.59375 137.90625 171.738281 137.902344 L 171.742188 137.902344 C 172.175781 137.886719 172.550781 137.875 172.921875 137.835938 C 174.039062 137.71875 175.167969 137.664062 176.253906 137.421875 C 177.035156 137.25 177.796875 137.015625 178.542969 136.71875 C 181.476562 135.558594 183.855469 133.53125 185.890625 131.011719 C 188.0625 128.320312 189.628906 125.28125 190.878906 122.070312 C 192.617188 117.601562 193.714844 112.988281 194.390625 108.277344 C 194.570312 107.0625 194.710938 105.84375 194.832031 104.613281 C 195.347656 99.355469 195.433594 94.085938 194.5625 88.847656 C 194.117188 86.160156 193.445312 83.539062 191.953125 81.207031 C 190.664062 79.199219 188.890625 77.972656 186.484375 77.679688 C 185.984375 77.609375 185.542969 77.40625 185.164062 77.074219 C 183.359375 75.390625 181.238281 74.328125 178.875 73.722656 C 173.832031 72.4375 168.714844 71.984375 163.535156 72.535156 C 161.707031 72.734375 159.882812 73.085938 158.3125 74.148438 C 156.898438 75.105469 156.621094 76.546875 157.742188 77.828125 C 158.460938 78.632812 159.292969 79.28125 160.246094 79.78125 C 162.132812 80.773438 164.230469 81.144531 166.332031 81.046875 C 169.132812 80.917969 171.929688 80.667969 174.710938 80.304688 C 177.796875 79.902344 180.863281 79.351562 183.921875 78.78125 C 184.902344 78.597656 185.519531 78.902344 185.910156 79.726562 C 186.679688 81.335938 187.570312 82.917969 188.105469 84.601562 C 189.070312 87.660156 189.125 90.828125 188.804688 94.023438 C 188.453125 97.5625 187.699219 100.984375 186.328125 104.269531 C 185.441406 106.378906 184.222656 108.160156 182.625 109.582031 C 181.570312 110.519531 180.394531 111.277344 179.109375 111.855469 C 178.410156 112.175781 177.71875 112.5 177.007812 112.777344 C 174.914062 113.59375 172.777344 114.304688 170.722656 115.203125 C 169.144531 115.898438 167.550781 116.65625 166.15625 117.652344 C 163.035156 119.886719 162.382812 123.042969 164.21875 126.433594 C 164.820312 127.554688 165.613281 128.570312 166.296875 129.65625 C 167.117188 130.949219 167.960938 132.234375 168.691406 133.574219 C 169.140625 134.398438 169.398438 135.328125 169.742188 136.207031 C 169.484375 136.292969 169.386719 136.355469 169.296875 136.347656 C 169.09375 136.328125 168.890625 136.289062 168.695312 136.234375 C 166.085938 135.535156 163.78125 134.25 161.707031 132.539062 C 158.257812 129.683594 155.699219 126.144531 153.816406 122.101562 C 151.582031 117.304688 150.550781 112.207031 150.214844 106.960938 C 150.03125 104.027344 150.007812 101.089844 150.148438 98.148438 C 150.335938 94.332031 150.792969 90.546875 151.515625 86.792969 C 152.203125 83.226562 152.882812 79.660156 154.464844 76.34375 C 154.511719 76.246094 154.40625 76.070312 154.371094 75.929688 C 153.65625 75.707031 153.417969 76.226562 153.226562 76.667969 C 152.859375 77.511719 152.535156 78.371094 152.257812 79.25 C 150.433594 85.199219 149.527344 91.304688 149.109375 97.503906 C 149.089844 97.769531 149.074219 98.035156 149.0625 98.300781 C 148.753906 103.683594 149.046875 109.015625 150.132812 114.304688 C 151.363281 120.328125 153.820312 125.78125 157.929688 130.40625 C 160.695312 133.515625 163.917969 135.96875 167.972656 137.160156 C 168.652344 137.359375 169.339844 137.527344 170.230469 137.765625 C 170.234375 137.84375 170.246094 137.921875 170.253906 138 C 170.414062 139.738281 170.714844 141.488281 170.652344 143.226562 C 170.503906 147.207031 170.207031 151.191406 169.859375 155.164062 C 169.464844 159.652344 168.992188 164.144531 169.484375 168.640625 C 169.710938 170.710938 170.125 172.800781 170.789062 174.769531 C 172.175781 178.863281 175.238281 181.539062 178.894531 183.601562 C 179.558594 183.972656 180.238281 184.316406 181.175781 184.8125 C 179.582031 185.367188 178.261719 185.855469 176.917969 186.28125 C 173.835938 187.257812 170.703125 187.933594 167.4375 187.6875 C 165.746094 187.558594 164.121094 187.195312 162.636719 186.324219 C 163.109375 185.378906 163.679688 184.511719 163.988281 183.566406 C 164.835938 180.9375 163.539062 178.089844 161.183594 177.175781 C 158.988281 176.3125 156.960938 177.628906 156.894531 179.988281 C 156.886719 180.605469 156.96875 181.207031 157.136719 181.800781 C 157.519531 183.21875 158.363281 184.371094 159.394531 185.398438 C 159.695312 185.699219 159.984375 186.015625 160.445312 186.496094 C 159.261719 186.960938 158.296875 187.445312 157.28125 187.714844 C 155.109375 188.285156 152.914062 188.742188 150.722656 189.234375 C 148.675781 189.6875 146.640625 190.179688 144.839844 191.320312 C 141.703125 193.308594 141.164062 196.609375 143.582031 199.425781 C 144.316406 200.285156 145.164062 201.011719 146.128906 201.601562 C 147.3125 202.3125 148.554688 202.898438 149.851562 203.359375 C 154.179688 204.9375 158.710938 205.34375 163.261719 205.402344 C 169.203125 205.484375 175.070312 204.652344 180.890625 203.5 C 183.898438 202.902344 186.882812 202.234375 189.6875 200.933594 C 191.796875 199.953125 193.683594 198.664062 195.152344 196.824219 C 197.140625 194.328125 196.996094 192.054688 194.5625 189.96875 C 193.492188 189.050781 192.234375 188.304688 190.960938 187.679688 C 189.175781 186.808594 187.300781 186.128906 185.460938 185.355469 C 185.117188 185.210938 184.800781 185.019531 184.296875 184.765625 C 185.671875 184.179688 186.84375 183.675781 188.019531 183.191406 C 193.027344 181.132812 198.039062 179.09375 203.371094 178.007812 C 205.992188 177.472656 208.621094 177.304688 211.277344 177.800781 C 214.625 178.429688 216.738281 180.5 217.820312 183.597656 C 218.867188 186.605469 218.226562 189.410156 216.03125 191.703125 C 213.230469 194.632812 209.871094 196.390625 205.667969 196.074219 C 205.316406 196.046875 204.941406 195.980469 204.605469 196.054688 C 204.320312 196.117188 204.074219 196.363281 203.554688 196.6875 C 204.167969 196.910156 204.46875 197.082031 204.785156 197.121094 C 209.566406 197.660156 213.550781 195.945312 216.765625 192.519531 C 222.117188 186.828125 218.449219 179.417969 213.519531 177.304688 Z M 183.691406 77.710938 C 179.457031 78.386719 175.234375 79.121094 170.992188 79.71875 C 168.257812 80.097656 165.492188 80.199219 162.769531 79.546875 C 161.363281 79.207031 160.035156 78.683594 158.988281 77.644531 C 157.785156 76.445312 157.902344 75.554688 159.414062 74.769531 C 161.175781 73.851562 163.121094 73.589844 165.050781 73.476562 C 169.453125 73.21875 173.835938 73.539062 178.109375 74.683594 C 179.667969 75.101562 181.140625 75.859375 182.625 76.519531 C 183.0625 76.710938 183.414062 77.097656 183.804688 77.394531 C 183.761719 77.496094 183.722656 77.601562 183.691406 77.710938 Z M 167.207031 129.027344 C 166.441406 127.945312 165.671875 126.851562 165.0625 125.675781 C 163.640625 122.929688 164.160156 120.484375 166.648438 118.644531 C 167.867188 117.742188 169.25 117.019531 170.644531 116.417969 C 173.03125 115.394531 175.488281 114.523438 177.917969 113.609375 C 180.484375 112.644531 182.597656 111.257812 184.273438 109.472656 C 186.027344 107.605469 187.308594 105.296875 188.132812 102.574219 C 188.535156 101.253906 188.9375 99.929688 189.210938 98.578125 C 190.132812 94.085938 190.515625 89.546875 189.339844 85.050781 C 188.804688 82.996094 187.871094 81.042969 187.089844 78.941406 C 188.683594 79.210938 189.839844 80.132812 190.761719 81.414062 C 191.914062 83.011719 192.582031 84.835938 193.023438 86.742188 C 193.984375 90.902344 194.21875 95.125 194.074219 99.386719 C 193.976562 102.378906 193.710938 105.355469 193.277344 108.320312 C 192.855469 111.179688 192.257812 114.003906 191.480469 116.789062 C 190.277344 121.097656 188.664062 125.222656 186.089844 128.917969 C 183.722656 132.308594 180.796875 134.988281 176.722656 136.191406 C 174.882812 136.734375 173.023438 136.851562 171.09375 136.636719 C 170.980469 136.394531 170.84375 136.175781 170.773438 135.941406 C 170.046875 133.398438 168.71875 131.167969 167.207031 129.027344 Z M 158.03125 180.855469 C 157.800781 179.707031 158.148438 178.714844 158.882812 178.277344 C 159.671875 177.8125 160.828125 177.996094 161.710938 178.746094 C 163.859375 180.554688 163.507812 184.199219 161.296875 185.554688 C 159.679688 184.382812 158.433594 182.917969 158.03125 180.855469 Z M 190.308594 188.597656 C 191.699219 189.25 192.972656 190.082031 194.132812 191.085938 C 195.800781 192.554688 195.84375 194.019531 194.527344 195.835938 C 193.140625 197.753906 191.230469 199.015625 189.121094 199.996094 C 186.605469 201.164062 183.921875 201.804688 181.214844 202.339844 C 174.746094 203.621094 168.230469 204.546875 161.605469 204.269531 C 157.566406 204.097656 153.5625 203.636719 149.753906 202.167969 C 148.609375 201.726562 147.515625 201.179688 146.472656 200.539062 C 145.734375 200.074219 145.078125 199.511719 144.511719 198.851562 C 142.378906 196.417969 142.804688 193.820312 145.570312 192.160156 C 147.394531 191.066406 149.449219 190.628906 151.492188 190.183594 C 152.941406 189.871094 154.414062 189.65625 155.828125 189.242188 C 157.726562 188.691406 159.582031 187.988281 161.820312 187.226562 C 166.476562 189.753906 171.523438 189.003906 176.570312 187.535156 C 178.230469 187.050781 179.863281 186.453125 181.484375 185.835938 C 182.246094 185.546875 182.898438 185.476562 183.679688 185.820312 C 185.875 186.777344 188.148438 187.5625 190.308594 188.597656 Z M 190.308594 188.597656 " fill-opacity="1" fill-rule="nonzero"/></g><g fill="#1e1c1c" fill-opacity="1"><g transform="translate(56.718751, 252.176703)"><g><path d="M 5.554688 -2.339844 L 5.195312 -2.402344 L 4.96875 -3.054688 L 4.9375 -3.636719 L 5.035156 -4.289062 L 4.96875 -12.246094 L 5.035156 -12.832031 L 5.003906 -19.488281 L 5.292969 -20.105469 L 5.910156 -20.464844 L 6.527344 -20.496094 L 7.242188 -20.429688 L 8.476562 -20.496094 L 9.84375 -20.398438 L 11.628906 -20.527344 L 12.277344 -20.464844 L 12.960938 -20.527344 L 13.675781 -20.429688 L 14.261719 -20.203125 L 14.226562 -19.910156 L 13.253906 -19.8125 L 11.367188 -19.8125 L 10.425781 -19.71875 L 7.308594 -19.847656 L 6.722656 -19.75 L 5.976562 -19.457031 L 5.683594 -18.742188 L 5.71875 -15.65625 L 5.652344 -15.070312 L 5.71875 -11.207031 L 5.976562 -10.652344 L 6.691406 -10.230469 L 9.648438 -10.363281 L 10.265625 -10.230469 L 11.335938 -10.363281 L 12.601562 -10.328125 L 13.253906 -10.101562 L 13.285156 -9.710938 L 12.3125 -9.582031 L 11.304688 -9.648438 L 9.90625 -9.550781 L 9.324219 -9.613281 L 8.707031 -9.484375 L 8.023438 -9.515625 L 7.40625 -9.613281 L 6.722656 -9.582031 L 6.007812 -9.289062 L 5.652344 -8.640625 L 5.75 -7.992188 L 5.652344 -3.574219 L 5.683594 -2.957031 Z M 5.554688 -2.339844 "/></g></g></g><g fill="#1e1c1c" fill-opacity="1"><g transform="translate(74.416328, 252.176703)"><g><path d="M 7.277344 -2.144531 L 5.976562 -2.207031 L 5.292969 -2.566406 L 4.96875 -3.183594 L 4.96875 -4.417969 L 5.035156 -5.101562 L 5.035156 -9.679688 L 4.9375 -10.363281 L 5.035156 -11.011719 L 4.9375 -12.3125 L 5.035156 -12.929688 L 4.96875 -13.644531 L 5.035156 -16.921875 L 4.9375 -17.507812 L 5.003906 -18.222656 L 4.90625 -18.90625 L 4.96875 -19.523438 L 5.261719 -20.140625 L 5.847656 -20.5625 L 8.445312 -20.5625 L 9.128906 -20.464844 L 12.117188 -20.5625 L 13.285156 -20.496094 L 14.226562 -20.335938 L 14.292969 -20.007812 L 13.707031 -19.75 L 7.859375 -19.71875 L 7.210938 -19.78125 L 6.5625 -19.78125 L 5.976562 -19.425781 L 5.652344 -18.839844 L 5.683594 -16.242188 L 5.621094 -15.65625 L 5.683594 -15.007812 L 5.621094 -14.390625 L 5.75 -13.675781 L 5.71875 -13.027344 L 5.945312 -12.375 L 6.5625 -12.117188 L 12.992188 -12.082031 L 13.707031 -11.953125 L 13.609375 -11.5625 L 13.058594 -11.335938 L 7.828125 -11.367188 L 7.277344 -11.433594 L 6.59375 -11.367188 L 5.945312 -11.042969 L 5.683594 -10.425781 L 5.683594 -9.746094 L 5.621094 -9.09375 L 5.652344 -8.476562 L 5.75 -7.859375 L 5.652344 -7.144531 L 5.75 -6.496094 L 5.683594 -5.78125 L 5.683594 -5.195312 L 5.621094 -4.578125 L 5.652344 -3.929688 L 5.976562 -3.25 L 6.691406 -2.921875 L 8.707031 -2.859375 L 9.226562 -2.921875 L 10.003906 -2.890625 L 10.589844 -2.921875 L 11.269531 -2.824219 L 11.953125 -2.890625 L 12.570312 -2.859375 L 13.253906 -2.921875 L 13.933594 -2.859375 L 14.617188 -2.730469 L 14.648438 -2.402344 L 13.96875 -2.175781 L 7.925781 -2.207031 Z M 7.277344 -2.144531 "/></g></g></g><g fill="#1e1c1c" fill-opacity="1"><g transform="translate(93.023138, 252.176703)"><g><path d="M 17.378906 -2.207031 L 16.761719 -2.761719 L 16.5 -3.28125 L 14.226562 -7.144531 L 13.871094 -7.632812 L 13.511719 -8.25 L 12.929688 -8.804688 L 12.050781 -8.964844 L 10.425781 -8.964844 L 9.515625 -9.03125 L 8.933594 -8.964844 L 6.496094 -9.03125 L 5.945312 -8.671875 L 5.554688 -8.023438 L 5.71875 -6.691406 L 5.585938 -6.105469 L 5.652344 -5.488281 L 5.652344 -4.839844 L 5.554688 -4.222656 L 5.652344 -3.636719 L 5.621094 -2.957031 L 5.425781 -2.273438 L 5.035156 -2.339844 L 4.839844 -3.605469 L 4.9375 -4.222656 L 4.871094 -10.945312 L 4.96875 -11.597656 L 4.871094 -12.148438 L 4.90625 -14.164062 L 4.871094 -14.84375 L 4.9375 -15.558594 L 4.871094 -16.207031 L 4.96875 -16.824219 L 4.90625 -18.125 L 5.003906 -18.742188 L 4.90625 -19.523438 L 5.328125 -20.140625 L 5.910156 -20.429688 L 9.0625 -20.527344 L 10.460938 -20.429688 L 11.109375 -20.496094 L 13.121094 -20.367188 L 14.324219 -20.074219 L 14.972656 -19.8125 L 16.015625 -19.066406 L 16.46875 -18.644531 L 17.605469 -16.988281 L 17.867188 -16.304688 L 17.996094 -14.714844 L 17.960938 -13.773438 L 17.867188 -13.15625 L 17.574219 -12.636719 L 17.34375 -11.984375 L 16.597656 -10.980469 L 16.207031 -10.558594 L 15.722656 -10.167969 L 15.167969 -9.746094 L 14.648438 -9.484375 L 14.164062 -9.03125 L 14.261719 -8.316406 L 16.695312 -4.484375 L 16.957031 -3.929688 L 17.636719 -2.792969 L 17.800781 -2.242188 Z M 6.886719 -9.710938 L 13.089844 -9.777344 L 14.390625 -10.167969 L 14.910156 -10.523438 L 15.460938 -10.847656 L 15.917969 -11.304688 L 16.792969 -12.410156 L 17.054688 -13.027344 L 17.183594 -13.773438 L 17.214844 -15.753906 L 17.085938 -16.371094 L 16.792969 -16.988281 L 15.558594 -18.546875 L 14.390625 -19.230469 L 13.804688 -19.523438 L 13.15625 -19.683594 L 8.867188 -19.8125 L 7.308594 -19.71875 L 6.5625 -19.75 L 6.007812 -19.425781 L 5.585938 -18.808594 L 5.683594 -16.890625 L 5.585938 -16.304688 L 5.554688 -15.625 L 5.683594 -15.007812 L 5.621094 -14.453125 L 5.652344 -13.804688 L 5.652344 -13.1875 L 5.71875 -12.472656 L 5.621094 -10.589844 L 5.878906 -9.941406 Z M 6.886719 -9.710938 "/></g></g></g><g fill="#1e1c1c" fill-opacity="1"><g transform="translate(115.526662, 252.176703)"><g><path d="M 9.582031 -2.113281 L 4.546875 -2.175781 L 3.898438 -2.304688 L 3.898438 -2.664062 L 4.578125 -2.921875 L 5.976562 -2.921875 L 6.59375 -3.183594 L 7.082031 -3.832031 L 6.953125 -4.449219 L 7.015625 -5.847656 L 7.113281 -6.429688 L 6.984375 -12.929688 L 7.082031 -13.546875 L 6.953125 -14.261719 L 7.015625 -15.527344 L 6.953125 -16.824219 L 7.015625 -17.574219 L 6.984375 -18.839844 L 6.691406 -19.488281 L 6.007812 -19.78125 L 4.808594 -19.75 L 4.191406 -20.007812 L 4.222656 -20.300781 L 4.871094 -20.464844 L 5.425781 -20.527344 L 6.074219 -20.464844 L 6.691406 -20.527344 L 9.515625 -20.527344 L 10.523438 -20.367188 L 10.558594 -19.976562 L 9.648438 -19.78125 L 8.671875 -19.8125 L 8.121094 -19.457031 L 7.699219 -18.808594 L 7.699219 -16.242188 L 7.828125 -14.910156 L 7.730469 -11.660156 L 7.828125 -11.011719 L 7.761719 -10.363281 L 7.699219 -5.195312 L 7.761719 -4.484375 L 7.761719 -3.832031 L 7.992188 -3.214844 L 8.707031 -2.859375 L 10.101562 -2.890625 L 10.75 -2.695312 L 10.6875 -2.304688 L 10.132812 -2.175781 Z M 9.582031 -2.113281 "/></g></g></g><g fill="#1e1c1c" fill-opacity="1"><g transform="translate(130.269226, 252.176703)"><g><path d="M 19.390625 -2.207031 L 18.710938 -3.3125 L 18.15625 -4.417969 L 17.574219 -5.003906 L 16.792969 -5.261719 L 13.027344 -5.164062 L 12.441406 -5.230469 L 6.429688 -5.292969 L 5.683594 -4.9375 L 5.132812 -4.417969 L 4.417969 -2.859375 L 3.960938 -2.242188 L 3.605469 -2.339844 L 3.898438 -3.507812 L 4.125 -4.058594 L 4.515625 -4.675781 L 6.140625 -8.28125 L 6.300781 -8.835938 L 6.722656 -9.453125 L 7.277344 -10.621094 L 7.472656 -11.207031 L 8.414062 -13.027344 L 9.386719 -15.398438 L 9.746094 -15.980469 L 10.492188 -17.800781 L 11.433594 -19.585938 L 11.921875 -19.585938 L 12.34375 -18.9375 L 14.261719 -14.78125 L 14.390625 -14.164062 L 15.136719 -13.027344 L 15.332031 -12.375 L 15.65625 -11.824219 L 15.851562 -11.207031 L 16.144531 -10.652344 L 16.402344 -10.035156 L 16.761719 -9.421875 L 17.214844 -8.21875 L 17.539062 -7.664062 L 17.734375 -7.015625 L 18.289062 -5.8125 L 18.644531 -5.261719 L 19.71875 -2.824219 L 19.8125 -2.304688 Z M 7.179688 -5.945312 L 16.273438 -5.945312 L 17.085938 -6.300781 L 17.152344 -6.820312 L 16.339844 -8.707031 L 15.949219 -9.257812 L 15.820312 -9.84375 L 15.398438 -10.425781 L 15.105469 -11.042969 L 14.910156 -11.726562 L 14.03125 -13.511719 L 13.675781 -14.066406 L 13.253906 -15.332031 L 12.863281 -15.949219 L 12.410156 -17.085938 L 12.050781 -17.636719 L 11.660156 -17.996094 L 11.207031 -17.636719 L 10.980469 -17.085938 L 10.6875 -16.535156 L 10.492188 -15.917969 L 9.257812 -13.480469 L 9.09375 -12.832031 L 8.445312 -11.628906 L 8.28125 -11.078125 L 7.699219 -9.84375 L 7.308594 -9.289062 L 6.300781 -6.820312 L 6.335938 -6.203125 Z M 7.179688 -5.945312 "/></g></g></g><g fill="#1e1c1c" fill-opacity="1"><g transform="translate(153.84434, 252.176703)"><g/></g></g><g fill="#1e1c1c" fill-opacity="1"><g transform="translate(162.644422, 252.176703)"><g><path d="M 10.945312 -2.175781 L 6.042969 -2.207031 L 5.425781 -2.535156 L 5.066406 -3.25 L 5.003906 -3.867188 L 5.066406 -5.164062 L 5.003906 -5.75 L 5.003906 -7.082031 L 5.101562 -7.761719 L 4.9375 -8.445312 L 5.035156 -9.746094 L 5.003906 -10.394531 L 5.035156 -10.980469 L 4.96875 -11.660156 L 4.96875 -13.644531 L 5.101562 -14.261719 L 4.90625 -18.90625 L 5.066406 -19.457031 L 5.359375 -20.074219 L 6.007812 -20.464844 L 8.574219 -20.496094 L 9.324219 -20.429688 L 10.035156 -20.496094 L 10.914062 -20.496094 L 13.21875 -20.238281 L 15.65625 -19.261719 L 16.144531 -18.839844 L 16.695312 -18.515625 L 17.574219 -17.507812 L 18.253906 -16.566406 L 18.871094 -15.363281 L 19.132812 -14.714844 L 19.261719 -14.097656 L 19.457031 -13.511719 L 19.652344 -12.246094 L 19.390625 -9.09375 L 19.164062 -8.476562 L 19.035156 -7.894531 L 18.613281 -6.722656 L 18.253906 -6.105469 L 16.632812 -4.15625 L 15.007812 -3.117188 L 13.121094 -2.5 L 11.921875 -2.273438 Z M 6.691406 -2.890625 L 7.40625 -2.890625 L 8.023438 -2.957031 L 12.570312 -3.019531 L 13.285156 -3.214844 L 13.804688 -3.441406 L 14.519531 -3.636719 L 16.144531 -4.644531 L 16.5 -5.164062 L 17.410156 -6.105469 L 17.703125 -6.59375 L 17.996094 -7.210938 L 18.386719 -7.828125 L 18.484375 -8.445312 L 18.675781 -9.0625 L 18.90625 -10.394531 L 18.808594 -12.929688 L 18.710938 -13.511719 L 18.515625 -14.195312 L 17.832031 -15.949219 L 16.566406 -17.507812 L 15.65625 -18.351562 L 15.070312 -18.710938 L 14.390625 -19.035156 L 13.773438 -19.261719 L 11.855469 -19.75 L 8.671875 -19.78125 L 8.023438 -19.71875 L 6.757812 -19.75 L 6.042969 -19.425781 L 5.78125 -18.808594 L 5.683594 -18.125 L 5.75 -9.679688 L 5.652344 -9.03125 L 5.78125 -8.378906 L 5.683594 -7.179688 L 5.71875 -5.910156 L 5.8125 -5.164062 L 5.71875 -4.515625 L 5.71875 -3.929688 L 6.042969 -3.25 Z M 6.691406 -2.890625 "/></g></g></g><g fill="#1e1c1c" fill-opacity="1"><g transform="translate(186.252014, 252.176703)"><g><path d="M 7.277344 -2.144531 L 5.976562 -2.207031 L 5.292969 -2.566406 L 4.96875 -3.183594 L 4.96875 -4.417969 L 5.035156 -5.101562 L 5.035156 -9.679688 L 4.9375 -10.363281 L 5.035156 -11.011719 L 4.9375 -12.3125 L 5.035156 -12.929688 L 4.96875 -13.644531 L 5.035156 -16.921875 L 4.9375 -17.507812 L 5.003906 -18.222656 L 4.90625 -18.90625 L 4.96875 -19.523438 L 5.261719 -20.140625 L 5.847656 -20.5625 L 8.445312 -20.5625 L 9.128906 -20.464844 L 12.117188 -20.5625 L 13.285156 -20.496094 L 14.226562 -20.335938 L 14.292969 -20.007812 L 13.707031 -19.75 L 7.859375 -19.71875 L 7.210938 -19.78125 L 6.5625 -19.78125 L 5.976562 -19.425781 L 5.652344 -18.839844 L 5.683594 -16.242188 L 5.621094 -15.65625 L 5.683594 -15.007812 L 5.621094 -14.390625 L 5.75 -13.675781 L 5.71875 -13.027344 L 5.945312 -12.375 L 6.5625 -12.117188 L 12.992188 -12.082031 L 13.707031 -11.953125 L 13.609375 -11.5625 L 13.058594 -11.335938 L 7.828125 -11.367188 L 7.277344 -11.433594 L 6.59375 -11.367188 L 5.945312 -11.042969 L 5.683594 -10.425781 L 5.683594 -9.746094 L 5.621094 -9.09375 L 5.652344 -8.476562 L 5.75 -7.859375 L 5.652344 -7.144531 L 5.75 -6.496094 L 5.683594 -5.78125 L 5.683594 -5.195312 L 5.621094 -4.578125 L 5.652344 -3.929688 L 5.976562 -3.25 L 6.691406 -2.921875 L 8.707031 -2.859375 L 9.226562 -2.921875 L 10.003906 -2.890625 L 10.589844 -2.921875 L 11.269531 -2.824219 L 11.953125 -2.890625 L 12.570312 -2.859375 L 13.253906 -2.921875 L 13.933594 -2.859375 L 14.617188 -2.730469 L 14.648438 -2.402344 L 13.96875 -2.175781 L 7.925781 -2.207031 Z M 7.277344 -2.144531 "/></g></g></g><g fill="#1e1c1c" fill-opacity="1"><g transform="translate(204.858824, 252.176703)"><g><path d="M 6.007812 -2.207031 L 5.359375 -2.535156 L 4.96875 -3.214844 L 4.96875 -6.820312 L 5.035156 -7.472656 L 4.9375 -8.476562 L 5.066406 -9.777344 L 4.9375 -10.492188 L 5.066406 -11.824219 L 5.003906 -12.410156 L 5.066406 -13.15625 L 4.9375 -14.390625 L 5.066406 -15.753906 L 4.96875 -16.664062 L 5.066406 -18.386719 L 4.96875 -19.683594 L 5.132812 -20.335938 L 5.523438 -20.367188 L 5.75 -19.75 L 5.683594 -19.066406 L 5.683594 -18.417969 L 5.75 -17.769531 L 5.652344 -17.085938 L 5.78125 -15.722656 L 5.71875 -15.136719 L 5.75 -14.453125 L 5.652344 -13.835938 L 5.78125 -13.089844 L 5.78125 -11.855469 L 5.621094 -10.589844 L 5.78125 -9.160156 L 5.683594 -7.828125 L 5.8125 -7.179688 L 5.78125 -3.898438 L 6.042969 -3.28125 L 6.660156 -2.921875 L 7.308594 -2.988281 L 7.828125 -2.988281 L 8.511719 -2.921875 L 9.128906 -2.921875 L 9.84375 -3.019531 L 11.140625 -2.921875 L 12.117188 -2.988281 L 13.609375 -2.957031 L 14.195312 -2.730469 L 14.164062 -2.371094 L 13.511719 -2.242188 L 9.808594 -2.207031 L 9.226562 -2.273438 Z M 6.007812 -2.207031 "/></g></g></g><g fill="#1e1c1c" fill-opacity="1"><g transform="translate(222.329088, 252.176703)"><g/></g></g><g fill="#1e1c1c" fill-opacity="1"><g transform="translate(231.12917, 252.176703)"><g><path d="M 11.011719 -3.410156 L 10.523438 -3.476562 L 10.070312 -4.09375 L 9.808594 -4.710938 L 9.648438 -5.328125 L 9.324219 -5.878906 L 8.804688 -7.046875 L 8.640625 -7.699219 L 8.28125 -8.28125 L 8.089844 -8.898438 L 7.535156 -10.167969 L 7.210938 -10.6875 L 6.789062 -11.953125 L 6.464844 -12.503906 L 5.488281 -14.910156 L 5.101562 -15.558594 L 3.929688 -18.613281 L 3.574219 -19.230469 L 3.28125 -19.878906 L 3.3125 -20.398438 L 3.636719 -20.429688 L 4.09375 -19.847656 L 4.386719 -19.328125 L 4.578125 -18.644531 L 4.839844 -18.027344 L 5.195312 -17.476562 L 5.683594 -16.273438 L 5.847656 -15.722656 L 6.171875 -15.105469 L 6.398438 -14.519531 L 6.691406 -13.96875 L 6.917969 -13.351562 L 7.082031 -12.734375 L 7.4375 -12.179688 L 7.632812 -11.5625 L 7.925781 -11.042969 L 8.054688 -10.425781 L 8.671875 -9.191406 L 8.898438 -8.609375 L 9.191406 -8.023438 L 9.386719 -7.4375 L 9.679688 -6.886719 L 10.101562 -5.71875 L 10.394531 -5.132812 L 10.847656 -4.808594 L 11.109375 -5.066406 L 11.726562 -6.238281 L 12.929688 -9.257812 L 13.253906 -9.84375 L 13.738281 -10.980469 L 13.871094 -11.5625 L 14.78125 -13.316406 L 15.203125 -14.550781 L 15.527344 -15.167969 L 15.6875 -15.722656 L 16.695312 -18.09375 L 17.152344 -18.9375 L 17.410156 -19.847656 L 17.960938 -20.464844 L 18.289062 -20.398438 L 18.222656 -19.8125 L 17.996094 -19.132812 L 17.636719 -18.546875 L 17.476562 -17.996094 L 16.597656 -16.144531 L 16.4375 -15.589844 L 13.773438 -9.515625 L 13.578125 -8.898438 L 12.667969 -7.046875 L 11.792969 -4.644531 L 11.464844 -4.027344 Z M 11.011719 -3.410156 "/></g></g></g><g fill="#1e1c1c" fill-opacity="1"><g transform="translate(253.01572, 252.176703)"><g><path d="M 9.582031 -2.113281 L 4.546875 -2.175781 L 3.898438 -2.304688 L 3.898438 -2.664062 L 4.578125 -2.921875 L 5.976562 -2.921875 L 6.59375 -3.183594 L 7.082031 -3.832031 L 6.953125 -4.449219 L 7.015625 -5.847656 L 7.113281 -6.429688 L 6.984375 -12.929688 L 7.082031 -13.546875 L 6.953125 -14.261719 L 7.015625 -15.527344 L 6.953125 -16.824219 L 7.015625 -17.574219 L 6.984375 -18.839844 L 6.691406 -19.488281 L 6.007812 -19.78125 L 4.808594 -19.75 L 4.191406 -20.007812 L 4.222656 -20.300781 L 4.871094 -20.464844 L 5.425781 -20.527344 L 6.074219 -20.464844 L 6.691406 -20.527344 L 9.515625 -20.527344 L 10.523438 -20.367188 L 10.558594 -19.976562 L 9.648438 -19.78125 L 8.671875 -19.8125 L 8.121094 -19.457031 L 7.699219 -18.808594 L 7.699219 -16.242188 L 7.828125 -14.910156 L 7.730469 -11.660156 L 7.828125 -11.011719 L 7.761719 -10.363281 L 7.699219 -5.195312 L 7.761719 -4.484375 L 7.761719 -3.832031 L 7.992188 -3.214844 L 8.707031 -2.859375 L 10.101562 -2.890625 L 10.75 -2.695312 L 10.6875 -2.304688 L 10.132812 -2.175781 Z M 9.582031 -2.113281 "/></g></g></g><g fill="#1e1c1c" fill-opacity="1"><g transform="translate(267.758272, 252.176703)"><g><path d="M 5.195312 -2.371094 L 4.96875 -2.988281 L 4.96875 -3.671875 L 5.066406 -4.253906 L 5.101562 -8.21875 L 5.003906 -8.898438 L 5.132812 -9.515625 L 5.066406 -10.167969 L 5.101562 -10.785156 L 5.035156 -11.5 L 5.101562 -13.414062 L 5.035156 -14 L 5.035156 -14.714844 L 5.101562 -15.363281 L 5.035156 -15.980469 L 5.066406 -17.34375 L 5.195312 -17.960938 L 5.71875 -18.058594 L 6.335938 -17.636719 L 6.855469 -17.152344 L 7.308594 -16.632812 L 7.761719 -16.273438 L 8.867188 -15.039062 L 10.558594 -13.546875 L 10.980469 -13.027344 L 11.433594 -12.570312 L 11.984375 -12.117188 L 12.410156 -11.695312 L 12.832031 -11.175781 L 13.351562 -10.75 L 13.773438 -10.265625 L 14.292969 -9.84375 L 16.726562 -7.375 L 17.3125 -6.886719 L 17.996094 -6.171875 L 18.449219 -6.042969 L 18.742188 -6.855469 L 18.773438 -7.796875 L 18.675781 -9.128906 L 18.742188 -9.777344 L 18.675781 -13.121094 L 18.773438 -14.390625 L 18.675781 -15.070312 L 18.613281 -17.054688 L 18.710938 -17.734375 L 18.644531 -19.683594 L 18.808594 -20.335938 L 19.164062 -20.367188 L 19.457031 -19.71875 L 19.390625 -17.117188 L 19.488281 -16.46875 L 19.390625 -15.820312 L 19.457031 -13.804688 L 19.390625 -13.253906 L 19.457031 -12.570312 L 19.457031 -5.425781 L 19.261719 -4.808594 L 18.742188 -4.675781 L 18.058594 -5.066406 L 17.636719 -5.585938 L 15.722656 -7.375 L 15.363281 -7.828125 L 14.878906 -8.316406 L 14.324219 -8.738281 L 12.539062 -10.589844 L 11.5625 -11.433594 L 11.140625 -11.953125 L 8.769531 -14.164062 L 8.414062 -14.585938 L 7.828125 -15.039062 L 7.375 -15.589844 L 6.886719 -16.015625 L 6.496094 -16.46875 L 5.976562 -16.597656 L 5.847656 -16.175781 L 5.75 -11.5625 L 5.8125 -10.882812 L 5.71875 -10.230469 L 5.8125 -2.988281 L 5.621094 -2.371094 Z M 5.195312 -2.371094 "/></g></g></g><g fill="#1e1c1c" fill-opacity="1"><g transform="translate(292.242631, 252.176703)"><g><path d="M 13.15625 -2.078125 L 11.335938 -2.242188 L 10.199219 -2.535156 L 8.933594 -3.019531 L 8.445312 -3.3125 L 7.761719 -3.636719 L 6.660156 -4.417969 L 6.300781 -4.90625 L 5.78125 -5.488281 L 5.132812 -6.496094 L 4.253906 -8.414062 L 4.125 -9.03125 L 4.058594 -9.710938 L 3.929688 -10.328125 L 3.929688 -12.3125 L 4.222656 -13.675781 L 4.289062 -14.261719 L 4.484375 -14.972656 L 4.742188 -15.558594 L 5.488281 -16.792969 L 6.203125 -17.734375 L 6.820312 -18.222656 L 7.242188 -18.644531 L 9.550781 -19.945312 L 10.101562 -20.140625 L 11.53125 -20.464844 L 13.121094 -20.59375 L 14 -20.5625 L 14.617188 -20.429688 L 15.332031 -20.367188 L 17.769531 -19.390625 L 19.328125 -18.253906 L 20.269531 -17.3125 L 20.59375 -16.695312 L 21.046875 -16.109375 L 21.339844 -15.625 L 21.957031 -13.707031 L 22.121094 -11.367188 L 22.023438 -9.648438 L 21.925781 -9.03125 L 21.664062 -8.347656 L 21.535156 -7.664062 L 20.269531 -5.359375 L 18.90625 -3.996094 L 18.386719 -3.574219 L 17.832031 -3.25 L 16.597656 -2.695312 L 15.949219 -2.5 L 14.617188 -2.242188 L 13.96875 -2.175781 Z M 13.058594 -2.792969 L 13.96875 -2.859375 L 15.882812 -3.25 L 16.402344 -3.410156 L 18.191406 -4.320312 L 19.976562 -6.171875 L 20.367188 -6.722656 L 21.015625 -8.414062 L 21.113281 -9.03125 L 21.375 -9.679688 L 21.472656 -10.363281 L 21.339844 -13.027344 L 21.046875 -14.261719 L 20.757812 -14.84375 L 20.59375 -15.398438 L 19.523438 -17.117188 L 19.101562 -17.539062 L 17.636719 -18.644531 L 17.019531 -19.003906 L 15.203125 -19.554688 L 14 -19.78125 L 13.058594 -19.8125 L 10.882812 -19.652344 L 8.511719 -18.742188 L 6.953125 -17.574219 L 5.75 -15.949219 L 5.488281 -15.429688 L 5.035156 -14.164062 L 4.644531 -12.3125 L 4.675781 -9.710938 L 4.90625 -9.09375 L 5.003906 -8.476562 L 5.164062 -7.828125 L 5.585938 -7.277344 L 5.878906 -6.625 L 6.171875 -6.140625 L 7.046875 -5.132812 L 7.925781 -4.320312 L 8.542969 -4.027344 L 8.964844 -3.769531 L 9.582031 -3.476562 L 10.914062 -3.019531 L 12.148438 -2.859375 Z M 13.058594 -2.792969 "/></g></g></g><g fill="#1e1c1c" fill-opacity="1"><g transform="translate(149.737838, 277.810811)"><g><path d="M 4.273438 -11.105469 C 2.113281 -11.105469 0.617188 -9.480469 0.617188 -7.382812 C 0.617188 -5.332031 1.863281 -3.628906 4.117188 -3.628906 C 5.253906 -3.628906 6.214844 -4.101562 6.878906 -5.015625 L 7.273438 -5.835938 C 7.164062 -1.484375 5.664062 -0.300781 4.007812 -0.300781 C 2.585938 -0.300781 1.734375 -1.042969 1.417969 -2.601562 L 1.386719 -2.761719 L 0.773438 -2.761719 L 0.789062 -2.601562 C 1.105469 -0.867188 2.066406 0.222656 3.976562 0.222656 C 6.328125 0.222656 7.886719 -1.75 7.886719 -6.121094 C 7.886719 -9.671875 6.5 -11.105469 4.273438 -11.105469 Z M 4.195312 -4.148438 C 2.367188 -4.148438 1.277344 -5.570312 1.277344 -7.429688 C 1.277344 -9.199219 2.445312 -10.585938 4.273438 -10.585938 C 6.121094 -10.585938 7.164062 -9.085938 7.164062 -7.210938 C 7.164062 -5.394531 5.835938 -4.148438 4.195312 -4.148438 Z M 4.195312 -4.148438 "/></g></g></g><g fill="#1e1c1c" fill-opacity="1"><g transform="translate(159.675763, 277.810811)"><g><path d="M 2.222656 -11.105469 C 1.246094 -11.105469 0.535156 -10.429688 0.535156 -9.449219 C 0.535156 -8.472656 1.246094 -7.777344 2.222656 -7.777344 C 3.203125 -7.777344 3.914062 -8.472656 3.914062 -9.449219 C 3.914062 -10.429688 3.203125 -11.105469 2.222656 -11.105469 Z M 2.222656 -10.632812 C 2.917969 -10.632812 3.390625 -10.160156 3.390625 -9.449219 C 3.390625 -8.722656 2.917969 -8.25 2.222656 -8.25 C 1.53125 -8.25 1.058594 -8.722656 1.058594 -9.449219 C 1.058594 -10.160156 1.53125 -10.632812 2.222656 -10.632812 Z M 2.222656 -10.632812 "/></g></g></g><g fill="#1e1c1c" fill-opacity="1"><g transform="translate(165.496829, 277.810811)"><g/></g></g><g fill="#1e1c1c" fill-opacity="1"><g transform="translate(169.898286, 277.810811)"><g><path d="M 7.746094 -4.386719 C 7.746094 -6.546875 6.59375 -8.535156 4.242188 -8.535156 C 2.128906 -8.535156 0.472656 -6.816406 0.472656 -4.179688 C 0.472656 -1.261719 2.113281 0.222656 4.101562 0.222656 C 5.710938 0.222656 7.164062 -0.710938 7.621094 -2.585938 L 7.003906 -2.585938 C 6.59375 -1.007812 5.394531 -0.285156 4.132812 -0.285156 C 2.683594 -0.285156 1.199219 -1.292969 1.105469 -3.992188 L 7.730469 -3.992188 C 7.746094 -4.195312 7.746094 -4.308594 7.746094 -4.386719 Z M 4.210938 -8.03125 C 5.617188 -8.03125 7.035156 -7.082031 7.128906 -4.511719 L 1.105469 -4.511719 C 1.199219 -6.894531 2.761719 -8.03125 4.210938 -8.03125 Z M 4.210938 -8.03125 "/></g></g></g><g fill="#1e1c1c" fill-opacity="1"><g transform="translate(179.599609, 277.810811)"><g><path d="M 7.714844 -11.59375 L 7.113281 -11.59375 L 7.113281 -6.625 L 6.640625 -7.589844 C 6.027344 -8.25 5.285156 -8.535156 4.324219 -8.535156 C 2.289062 -8.535156 0.472656 -7.050781 0.472656 -4.085938 C 0.472656 -1.578125 1.878906 0.222656 4.117188 0.222656 C 5.175781 0.222656 5.949219 -0.0625 6.625 -0.820312 L 7.113281 -1.765625 L 7.113281 0 L 7.714844 0 Z M 4.179688 -0.285156 C 2.191406 -0.285156 1.136719 -2.066406 1.136719 -4.164062 C 1.136719 -6.5 2.460938 -8.03125 4.324219 -8.03125 C 5.601562 -8.03125 7.113281 -7.226562 7.113281 -4.652344 L 7.113281 -3.847656 C 7.113281 -1.199219 5.757812 -0.285156 4.179688 -0.285156 Z M 4.179688 -0.285156 "/></g></g></g><g fill="#1e1c1c" fill-opacity="1"><g transform="translate(189.837227, 277.810811)"><g><path d="M 1.4375 -10.507812 C 1.183594 -10.507812 0.976562 -10.300781 0.976562 -10.050781 C 0.976562 -9.796875 1.183594 -9.59375 1.4375 -9.59375 C 1.6875 -9.59375 1.894531 -9.796875 1.894531 -10.050781 C 1.894531 -10.300781 1.6875 -10.507812 1.4375 -10.507812 Z M 1.734375 0 L 1.734375 -8.3125 L 1.136719 -8.3125 L 1.136719 0 Z M 1.734375 0 "/></g></g></g><g fill="#1e1c1c" fill-opacity="1"><g transform="translate(194.096727, 277.810811)"><g><path d="M 4.308594 -8.535156 C 2.222656 -8.535156 0.472656 -6.878906 0.472656 -4.148438 C 0.472656 -1.324219 2.113281 0.222656 4.164062 0.222656 C 5.898438 0.222656 7.257812 -0.789062 7.605469 -2.523438 L 6.988281 -2.523438 C 6.6875 -1.074219 5.554688 -0.285156 4.210938 -0.285156 C 2.632812 -0.285156 1.136719 -1.53125 1.136719 -4.242188 C 1.136719 -6.816406 2.777344 -8.046875 4.273438 -8.046875 C 5.820312 -8.046875 6.785156 -7.148438 7.066406 -5.679688 L 7.683594 -5.679688 C 7.429688 -7.382812 6.152344 -8.535156 4.308594 -8.535156 Z M 4.308594 -8.535156 "/></g></g></g><g fill="#1e1c1c" fill-opacity="1"><g transform="translate(203.671856, 277.810811)"><g><path d="M 1.4375 -10.507812 C 1.183594 -10.507812 0.976562 -10.300781 0.976562 -10.050781 C 0.976562 -9.796875 1.183594 -9.59375 1.4375 -9.59375 C 1.6875 -9.59375 1.894531 -9.796875 1.894531 -10.050781 C 1.894531 -10.300781 1.6875 -10.507812 1.4375 -10.507812 Z M 1.734375 0 L 1.734375 -8.3125 L 1.136719 -8.3125 L 1.136719 0 Z M 1.734375 0 "/></g></g></g><g fill="#1e1c1c" fill-opacity="1"><g transform="translate(207.931353, 277.810811)"><g><path d="M 4.605469 -9.148438 L 5.757812 -10.886719 L 5.113281 -10.886719 L 4.164062 -9.148438 Z M 4.433594 -8.535156 C 1.972656 -8.535156 0.472656 -6.71875 0.472656 -4.148438 C 0.472656 -1.59375 1.972656 0.222656 4.433594 0.222656 C 6.894531 0.222656 8.394531 -1.59375 8.394531 -4.148438 C 8.394531 -6.71875 6.894531 -8.535156 4.433594 -8.535156 Z M 4.433594 -0.285156 C 2.667969 -0.285156 1.136719 -1.578125 1.136719 -4.148438 C 1.136719 -6.738281 2.667969 -8.03125 4.433594 -8.03125 C 6.199219 -8.03125 7.746094 -6.738281 7.746094 -4.148438 C 7.746094 -1.578125 6.199219 -0.285156 4.433594 -0.285156 Z M 4.433594 -0.285156 "/></g></g></g><g fill="#1e1c1c" fill-opacity="1"><g transform="translate(218.168968, 277.810811)"><g><path d="M 7.492188 -6.011719 C 7.335938 -7.589844 6.328125 -8.535156 4.605469 -8.535156 C 3.628906 -8.535156 2.746094 -8.1875 2.113281 -7.398438 L 1.734375 -6.53125 L 1.734375 -8.3125 L 1.136719 -8.3125 L 1.136719 0 L 1.734375 0 L 1.734375 -4.605469 C 1.734375 -6.988281 3.078125 -8.015625 4.542969 -8.015625 C 6.042969 -8.015625 6.753906 -7.128906 6.894531 -5.835938 C 6.941406 -5.410156 6.957031 -5.046875 6.957031 -4.496094 L 6.957031 0 L 7.558594 0 L 7.558594 -4.636719 C 7.558594 -5.316406 7.539062 -5.585938 7.492188 -6.011719 Z M 7.492188 -6.011719 "/></g></g></g></svg>