<svg xmlns="http://www.w3.org/2000/svg" xmlns:xlink="http://www.w3.org/1999/xlink" width="500" zoomAndPan="magnify" viewBox="0 0 375 374.999991" height="500" preserveAspectRatio="xMidYMid meet" version="1.0"><defs><g/><clipPath id="id1"><path d="M 54.886719 137.769531 L 292.636719 137.769531 L 292.636719 205.269531 L 54.886719 205.269531 Z M 54.886719 137.769531 " clip-rule="nonzero"/></clipPath><clipPath id="id2"><path d="M 282.601562 198.195312 L 292.351562 198.195312 L 292.351562 212.445312 L 282.601562 212.445312 Z M 282.601562 198.195312 " clip-rule="nonzero"/></clipPath><clipPath id="id3"><path d="M 125 23.292969 L 232 23.292969 L 232 205.542969 L 125 205.542969 Z M 125 23.292969 " clip-rule="nonzero"/></clipPath></defs><g clip-path="url(#id1)"><path fill="#dfd8d8" d="M 292.527344 170.003906 C 292.46875 168.496094 292.300781 166.6875 292.164062 165.972656 C 292.027344 165.253906 291.8125 163.855469 291.707031 162.835938 C 291.371094 160.003906 291.054688 159.5 289.394531 159.289062 C 288.207031 159.121094 283.613281 159.640625 282.488281 160.066406 C 281.957031 160.261719 279.460938 160.765625 279.386719 160.6875 C 279.355469 160.660156 279.355469 160.21875 279.402344 159.730469 C 279.507812 158.589844 279.1875 156.03125 278.835938 155.238281 C 278.167969 153.703125 277.957031 153.671875 268.796875 153.609375 C 261.695312 153.566406 261.238281 153.582031 260.734375 153.855469 C 260.082031 154.1875 259.0625 155.148438 259.0625 155.421875 C 259.0625 155.527344 258.972656 155.621094 258.878906 155.621094 C 258.773438 155.621094 252.902344 155.636719 245.828125 155.652344 L 232.972656 155.695312 L 232.136719 155.363281 C 230.859375 154.84375 229.597656 153.734375 228.667969 152.347656 C 227.496094 150.597656 225.214844 147.597656 224.394531 146.746094 C 224.011719 146.335938 223.359375 145.757812 222.933594 145.453125 C 222.523438 145.148438 221.730469 144.507812 221.214844 144.019531 C 219.816406 142.726562 218.933594 142.195312 216.300781 141.039062 C 212.558594 139.378906 208.953125 138.617188 202.472656 138.113281 C 198.761719 137.8125 197.574219 137.78125 191.902344 137.871094 C 188.386719 137.917969 184.855469 138.023438 184.050781 138.101562 C 183.261719 138.175781 180.796875 138.328125 178.574219 138.417969 C 176.367188 138.511719 173.675781 138.648438 172.582031 138.722656 C 171.5 138.816406 167.347656 138.875 163.378906 138.875 C 159.40625 138.890625 154.675781 138.953125 152.882812 139.027344 C 139.738281 139.605469 137.183594 139.652344 129.53125 139.5 C 125.347656 139.410156 108.917969 139.332031 93.023438 139.300781 C 64.347656 139.257812 64.117188 139.257812 63.617188 139.5625 C 63.128906 139.851562 62.050781 141.21875 61.351562 142.40625 C 61.167969 142.710938 60.789062 143.730469 60.484375 144.660156 C 59.949219 146.289062 59.8125 146.640625 58.855469 148.738281 C 58.613281 149.273438 58.414062 149.730469 58.414062 149.773438 C 58.414062 149.941406 57.105469 152.957031 56.421875 154.339844 C 56.011719 155.195312 55.644531 156.09375 55.601562 156.320312 C 54.976562 159.988281 54.886719 160.75 54.976562 161.832031 C 55.082031 163.199219 55.3125 169.988281 55.507812 177.921875 C 55.660156 183.765625 55.691406 184.054688 56.4375 186.261719 C 56.621094 186.75 56.800781 187.921875 56.894531 188.894531 C 57.015625 190.402344 57.105469 190.796875 57.546875 191.742188 C 57.835938 192.351562 58.15625 193.25 58.261719 193.75 C 58.429688 194.589844 59.90625 198.027344 60.542969 199.078125 C 60.695312 199.335938 61.0625 200.34375 61.351562 201.332031 C 62.21875 204.300781 62.292969 204.332031 67.054688 204.332031 C 69.71875 204.332031 71.085938 204.40625 72.804688 204.636719 C 75.9375 205.0625 84.535156 205.257812 93.097656 205.078125 C 96.734375 205.015625 104.644531 204.878906 110.667969 204.800781 C 121.253906 204.648438 127.097656 204.484375 132.039062 204.179688 C 133.335938 204.085938 139.664062 204.027344 146.113281 204.027344 C 157.796875 204.027344 160.640625 204.101562 168.019531 204.679688 C 171.304688 204.925781 189.96875 204.925781 196.996094 204.664062 C 204.648438 204.390625 210.214844 204.054688 211.980469 203.78125 C 213.667969 203.507812 216.558594 202.59375 218.261719 201.789062 C 219.527344 201.195312 220.53125 200.265625 222.324219 198.011719 C 222.933594 197.265625 223.617188 196.476562 223.847656 196.261719 C 224.4375 195.714844 225.320312 194.480469 225.761719 193.597656 C 226.28125 192.535156 227.40625 191.4375 229.335938 190.160156 C 231.984375 188.410156 233.277344 187.875 236.929688 187.039062 C 239.042969 186.566406 243.121094 186.199219 247.957031 186.0625 C 250.589844 185.988281 253.9375 185.882812 255.378906 185.820312 C 257.769531 185.730469 258.042969 185.746094 258.53125 186.003906 C 258.941406 186.214844 259.078125 186.414062 259.152344 186.824219 C 259.214844 187.113281 259.351562 187.539062 259.472656 187.769531 C 259.898438 188.636719 259.976562 188.652344 267.15625 188.683594 C 274.625 188.726562 277.710938 188.558594 278.351562 188.089844 C 278.976562 187.617188 279.308594 186.792969 279.492188 185.210938 L 279.675781 183.734375 L 285.242188 183.839844 L 290.792969 183.933594 L 291.328125 183.597656 C 291.617188 183.398438 292.011719 182.914062 292.222656 182.488281 C 292.605469 181.726562 292.605469 181.710938 292.621094 177.234375 C 292.636719 174.769531 292.589844 171.511719 292.527344 170.003906 Z M 290.855469 181.773438 L 290.550781 182.457031 L 288.238281 182.363281 C 286.976562 182.304688 284.480469 182.257812 282.703125 182.257812 L 279.476562 182.257812 L 279.292969 180.933594 C 279.082031 179.425781 279.15625 173.6875 279.460938 169.929688 C 279.554688 168.710938 279.597656 166.503906 279.566406 165.011719 C 279.523438 162.042969 279.445312 162.289062 280.511719 162.089844 C 280.800781 162.042969 281.863281 161.800781 282.867188 161.558594 C 285.074219 161.023438 287.203125 160.75 288.648438 160.824219 C 289.625 160.871094 289.730469 160.902344 289.898438 161.265625 C 290.003906 161.480469 290.15625 162.378906 290.246094 163.246094 C 290.324219 164.113281 290.503906 165.347656 290.628906 165.972656 C 290.765625 166.6875 290.917969 168.832031 291.007812 171.753906 C 291.097656 174.3125 291.191406 176.503906 291.234375 176.625 C 291.265625 176.75 291.265625 177.8125 291.21875 178.96875 C 291.175781 180.644531 291.082031 181.238281 290.855469 181.773438 Z M 277.757812 173.734375 C 277.605469 175.804688 277.636719 179.414062 277.820312 181.695312 L 277.847656 182.121094 L 270.089844 182.121094 C 260.871094 182.136719 261.617188 182.152344 261.296875 181.910156 C 260.8125 181.558594 260.277344 179.730469 259.960938 177.265625 C 259.625 174.722656 259.65625 173.796875 260.171875 168.332031 L 260.355469 166.351562 L 260.964844 166.246094 C 263.414062 165.804688 267.503906 164.964844 269.027344 164.601562 C 270.03125 164.34375 271.808594 163.976562 272.980469 163.777344 C 274.761719 163.476562 276.007812 163.171875 277.652344 162.667969 C 277.832031 162.605469 277.925781 162.714844 277.984375 163.035156 C 278.09375 163.6875 277.941406 170.902344 277.757812 173.734375 Z M 277.742188 186.414062 C 277.652344 186.640625 277.4375 186.855469 277.253906 186.902344 C 276.070312 187.160156 261.769531 187.386719 261.160156 187.144531 C 260.855469 187.039062 260.71875 186.855469 260.660156 186.476562 C 260.492188 185.59375 260.035156 185.015625 259.167969 184.601562 L 258.378906 184.222656 L 253.28125 184.3125 C 244.367188 184.464844 239.285156 184.90625 235.332031 185.851562 C 232.441406 186.535156 231.421875 186.992188 228.484375 188.910156 C 226.339844 190.328125 225.09375 191.558594 224.316406 193.035156 C 223.984375 193.691406 223.296875 194.632812 222.660156 195.320312 C 222.050781 195.957031 221.167969 196.976562 220.710938 197.558594 C 219.527344 199.046875 218.339844 200.113281 217.457031 200.507812 C 216.117188 201.101562 213.199219 202.015625 211.890625 202.261719 C 207.007812 203.171875 176.382812 203.722656 166.875 203.066406 C 164.746094 202.929688 161.597656 202.730469 159.894531 202.65625 C 155.910156 202.457031 136.195312 202.457031 132.164062 202.65625 C 130.457031 202.730469 127.644531 202.867188 125.878906 202.960938 C 124.128906 203.050781 117.511719 203.1875 111.199219 203.28125 C 104.886719 203.355469 98.621094 203.492188 97.28125 203.570312 C 95.941406 203.660156 90.710938 203.691406 85.644531 203.660156 C 77.15625 203.601562 76.257812 203.570312 74.082031 203.25 C 72.347656 203.007812 70.644531 202.882812 67.664062 202.824219 C 64.316406 202.746094 63.554688 202.6875 63.390625 202.503906 C 63.28125 202.382812 62.992188 201.589844 62.765625 200.753906 C 62.523438 199.929688 62.003906 198.589844 61.609375 197.785156 C 60.421875 195.394531 59.964844 194.390625 59.859375 193.828125 C 59.691406 192.960938 59.234375 191.664062 58.839844 190.859375 C 58.535156 190.265625 58.429688 189.761719 58.355469 188.5 C 58.277344 187.449219 58.109375 186.476562 57.851562 185.683594 C 57.636719 185.015625 57.394531 184.222656 57.320312 183.933594 C 57.242188 183.644531 57.105469 180.902344 57.046875 177.84375 C 56.847656 169.914062 56.621094 163.171875 56.496094 162.011719 C 56.4375 161.359375 56.484375 160.476562 56.632812 159.5 C 56.773438 158.664062 56.921875 157.660156 56.96875 157.265625 C 57.015625 156.867188 57.410156 155.847656 57.820312 154.980469 C 58.246094 154.113281 58.71875 153.109375 58.871094 152.726562 C 59.433594 151.265625 60.542969 148.664062 60.894531 147.933594 C 61.089844 147.523438 61.457031 146.59375 61.683594 145.878906 C 61.914062 145.164062 62.203125 144.308594 62.324219 143.976562 C 62.644531 143.078125 64.058594 141.039062 64.5 140.855469 C 64.757812 140.75 75.101562 140.75 98.652344 140.886719 C 141.410156 141.097656 139.964844 141.113281 146.1875 140.792969 C 149.15625 140.640625 154.980469 140.503906 159.574219 140.460938 C 169.75 140.367188 178.285156 140.078125 183.6875 139.621094 C 192.554688 138.875 202.992188 139.242188 209.441406 140.550781 C 212.878906 141.234375 213.304688 141.355469 215.175781 142.195312 C 218.398438 143.625 218.660156 143.777344 219.785156 144.84375 C 220.179688 145.207031 220.984375 145.894531 221.5625 146.335938 C 222.15625 146.777344 222.828125 147.324219 223.070312 147.539062 C 223.464844 147.902344 227.117188 152.652344 227.117188 152.804688 C 227.117188 153.003906 228.289062 154.539062 228.773438 154.980469 C 229.71875 155.832031 230.933594 156.5625 231.863281 156.867188 C 232.714844 157.128906 233.550781 157.140625 245.765625 157.140625 L 258.757812 157.140625 L 258.757812 165.058594 L 258.347656 165.148438 C 256.050781 165.652344 254.863281 166.503906 254.421875 167.980469 C 254.101562 169.0625 253.859375 172.804688 253.980469 174.800781 C 254.101562 176.929688 254.511719 178.316406 255.242188 179.09375 C 255.851562 179.746094 256.492188 179.960938 257.964844 179.976562 C 258.652344 179.976562 258.789062 180.019531 258.894531 180.324219 C 258.972656 180.507812 259.183594 181.070312 259.367188 181.574219 C 259.867188 182.882812 260.414062 183.414062 261.480469 183.597656 C 261.996094 183.691406 264.417969 183.71875 267.65625 183.675781 C 270.59375 183.628906 274.136719 183.644531 275.535156 183.703125 L 278.09375 183.8125 L 278 184.90625 C 277.941406 185.5 277.832031 186.171875 277.742188 186.414062 Z M 276.480469 161.433594 C 275.734375 161.664062 274.257812 162 273.210938 162.179688 C 272.160156 162.363281 270.347656 162.730469 269.179688 163.019531 C 266.789062 163.566406 262.105469 164.523438 261.007812 164.675781 L 260.277344 164.769531 L 260.355469 160.398438 C 260.429688 156.167969 260.445312 156 260.765625 155.664062 C 261.359375 155.042969 262.027344 154.964844 266.441406 155.070312 C 268.707031 155.132812 271.78125 155.164062 273.285156 155.164062 C 275.902344 155.164062 277.042969 155.285156 277.347656 155.589844 C 277.605469 155.847656 277.894531 157.980469 277.878906 159.488281 L 277.847656 161.007812 Z M 258.453125 170.691406 C 258.253906 174.542969 258.242188 174.691406 258.378906 176.6875 L 258.5 178.5 L 257.554688 178.421875 C 256.445312 178.347656 256.171875 178.117188 255.792969 177.007812 C 255.441406 175.972656 255.320312 172.867188 255.546875 170.675781 C 255.761719 168.621094 255.945312 167.917969 256.382812 167.507812 C 256.734375 167.1875 257.964844 166.730469 258.484375 166.730469 C 258.773438 166.730469 258.789062 166.792969 258.695312 167.386719 C 258.652344 167.738281 258.542969 169.230469 258.453125 170.691406 Z M 258.453125 170.691406 " fill-opacity="1" fill-rule="nonzero"/></g><g clip-path="url(#id2)"><path fill="#dfd8d8" d="M 287.476562 198.207031 C 285.527344 202.210938 282.601562 204.304688 282.601562 207.355469 C 282.601562 210.160156 284.785156 212.4375 287.476562 212.4375 C 290.171875 212.4375 292.351562 210.160156 292.351562 207.355469 C 292.351562 204.304688 289.429688 202.273438 287.476562 198.207031 Z M 287.476562 198.207031 " fill-opacity="1" fill-rule="nonzero"/></g><path fill="#dfd8d8" d="M 197.484375 72.84375 C 196.558594 79.277344 195.046875 85.570312 192.671875 91.671875 C 190.957031 96.054688 188.8125 100.203125 185.835938 103.878906 C 183.046875 107.320312 179.785156 110.082031 175.765625 111.667969 C 172.703125 112.472656 169.597656 113.011719 166.445312 113.28125 L 166.4375 113.28125 C 166.234375 113.300781 166.03125 113.316406 165.824219 113.332031 C 165.355469 113.367188 164.882812 113.394531 164.414062 113.417969 C 164.402344 113.3125 164.390625 113.203125 164.382812 113.097656 C 163.164062 112.769531 162.21875 112.539062 161.285156 112.273438 C 155.722656 110.640625 151.308594 107.292969 147.519531 103.050781 C 141.886719 96.734375 138.519531 89.289062 136.832031 81.066406 C 135.34375 73.847656 134.945312 66.566406 135.363281 59.214844 C 135.855469 59.132812 136.351562 59.0625 136.851562 59.011719 C 141.554688 58.5 146.390625 59.230469 150.679688 61.230469 C 157.09375 64.230469 161.808594 69.921875 168.34375 72.703125 C 172.480469 74.460938 176.917969 74.828125 181.359375 74.617188 C 182.117188 74.582031 182.871094 74.527344 183.625 74.460938 C 185.933594 74.265625 188.230469 73.949219 190.476562 73.636719 C 192.25 73.382812 194.023438 73.070312 195.808594 72.914062 L 195.960938 72.902344 C 196.46875 72.855469 196.976562 72.835938 197.484375 72.84375 Z M 197.484375 72.84375 " fill-opacity="1" fill-rule="nonzero"/><g clip-path="url(#id3)"><path fill="#dfd8d8" d="M 223.699219 167.070312 C 220.394531 165.660156 217.050781 165.578125 213.621094 165.945312 C 208.800781 166.464844 204.121094 167.664062 199.59375 169.359375 C 194.03125 171.4375 188.515625 173.652344 183.011719 175.882812 C 181.871094 176.34375 180.898438 176.414062 179.832031 175.800781 C 178.078125 174.796875 176.222656 173.9375 174.53125 172.835938 C 169.746094 169.714844 166.636719 165.371094 165.511719 159.730469 C 165.117188 157.742188 164.84375 155.738281 164.679688 153.71875 C 164.144531 147.34375 164.976562 141.023438 165.597656 134.703125 C 166.296875 127.679688 167.011719 120.667969 165.824219 113.328125 C 165.824219 113.320312 165.824219 113.3125 165.824219 113.304688 C 166.039062 113.292969 166.246094 113.285156 166.4375 113.277344 L 166.445312 113.277344 C 167.042969 113.257812 167.554688 113.242188 168.0625 113.1875 C 169.59375 113.027344 171.140625 112.953125 172.628906 112.625 C 173.699219 112.386719 174.746094 112.066406 175.765625 111.664062 C 179.785156 110.078125 183.046875 107.3125 185.835938 103.875 C 188.8125 100.199219 190.957031 96.050781 192.671875 91.667969 C 195.050781 85.566406 196.558594 79.269531 197.484375 72.839844 C 197.730469 71.179688 197.925781 69.511719 198.089844 67.835938 C 198.796875 60.65625 198.914062 53.464844 197.722656 46.3125 C 197.109375 42.640625 196.191406 39.066406 194.144531 35.882812 C 192.378906 33.140625 189.945312 31.464844 186.648438 31.0625 C 185.964844 30.96875 185.363281 30.695312 184.839844 30.238281 C 182.367188 27.941406 179.457031 26.488281 176.222656 25.664062 C 169.3125 23.910156 162.300781 23.289062 155.199219 24.042969 C 152.695312 24.316406 150.195312 24.792969 148.042969 26.246094 C 146.101562 27.554688 145.726562 29.519531 147.261719 31.265625 C 148.242188 32.367188 149.386719 33.253906 150.691406 33.933594 C 153.277344 35.289062 156.148438 35.792969 159.035156 35.660156 C 162.871094 35.484375 166.703125 35.144531 170.511719 34.648438 C 174.746094 34.101562 178.945312 33.347656 183.136719 32.566406 C 184.480469 32.320312 185.328125 32.734375 185.863281 33.863281 C 186.917969 36.058594 188.136719 38.21875 188.867188 40.515625 C 190.195312 44.691406 190.269531 49.015625 189.832031 53.378906 C 189.34375 58.210938 188.316406 62.882812 186.433594 67.367188 C 185.21875 70.246094 183.546875 72.675781 181.359375 74.617188 C 179.914062 75.898438 178.304688 76.933594 176.539062 77.722656 C 175.585938 78.15625 174.632812 78.601562 173.660156 78.980469 C 170.792969 80.09375 167.867188 81.066406 165.050781 82.292969 C 162.886719 83.242188 160.703125 84.273438 158.789062 85.636719 C 154.515625 88.6875 153.621094 92.996094 156.136719 97.625 C 156.960938 99.15625 158.050781 100.542969 158.980469 102.019531 C 160.105469 103.785156 161.261719 105.542969 162.265625 107.375 C 162.878906 108.496094 163.234375 109.761719 163.707031 110.96875 C 163.351562 111.085938 163.21875 111.167969 163.09375 111.15625 C 162.816406 111.128906 162.539062 111.078125 162.269531 111.003906 C 158.691406 110.046875 155.535156 108.296875 152.691406 105.957031 C 147.96875 102.058594 144.460938 97.230469 141.878906 91.710938 C 138.820312 85.160156 137.40625 78.203125 136.949219 71.039062 C 136.691406 67.03125 136.664062 63.023438 136.855469 59.011719 C 137.113281 53.800781 137.738281 48.632812 138.730469 43.507812 C 139.671875 38.640625 140.601562 33.769531 142.769531 29.242188 C 142.835938 29.109375 142.6875 28.871094 142.640625 28.675781 C 141.660156 28.375 141.335938 29.082031 141.074219 29.6875 C 140.566406 30.835938 140.125 32.011719 139.746094 33.210938 C 137.246094 41.332031 136.003906 49.667969 135.429688 58.128906 C 135.40625 58.492188 135.382812 58.851562 135.363281 59.214844 C 134.945312 66.566406 135.34375 73.847656 136.832031 81.066406 C 138.519531 89.289062 141.886719 96.734375 147.519531 103.046875 C 151.308594 107.292969 155.722656 110.640625 161.277344 112.269531 C 162.210938 112.539062 163.152344 112.769531 164.375 113.09375 C 164.382812 113.199219 164.394531 113.308594 164.40625 113.414062 C 164.625 115.785156 165.039062 118.175781 164.953125 120.546875 C 164.75 125.984375 164.34375 131.421875 163.867188 136.84375 C 163.324219 142.972656 162.679688 149.105469 163.355469 155.242188 C 163.660156 158.066406 164.226562 160.925781 165.140625 163.609375 C 167.042969 169.199219 171.238281 172.851562 176.25 175.667969 C 177.160156 176.175781 178.085938 176.640625 179.371094 177.324219 C 177.191406 178.078125 175.378906 178.742188 173.539062 179.324219 C 169.316406 180.660156 165.023438 181.582031 160.546875 181.242188 C 158.230469 181.070312 156.003906 180.574219 153.96875 179.386719 C 154.617188 178.089844 155.394531 176.90625 155.816406 175.621094 C 156.980469 172.027344 155.207031 168.140625 151.980469 166.890625 C 148.96875 165.714844 146.191406 167.515625 146.101562 170.734375 C 146.089844 171.574219 146.199219 172.398438 146.429688 173.207031 C 146.957031 175.148438 148.113281 176.71875 149.523438 178.121094 C 149.9375 178.53125 150.335938 178.964844 150.964844 179.617188 C 149.339844 180.253906 148.023438 180.914062 146.628906 181.28125 C 143.652344 182.058594 140.644531 182.6875 137.640625 183.355469 C 134.835938 183.976562 132.046875 184.648438 129.578125 186.207031 C 125.28125 188.917969 124.539062 193.421875 127.855469 197.269531 C 128.859375 198.441406 130.023438 199.433594 131.34375 200.242188 C 132.964844 201.210938 134.667969 202.007812 136.449219 202.640625 C 142.378906 204.792969 148.589844 205.347656 154.824219 205.429688 C 162.96875 205.539062 171.011719 204.40625 178.984375 202.832031 C 183.105469 202.015625 187.199219 201.105469 191.035156 199.328125 C 193.929688 197.988281 196.515625 196.230469 198.527344 193.71875 C 201.25 190.3125 201.054688 187.207031 197.722656 184.363281 C 196.25 183.105469 194.527344 182.089844 192.785156 181.238281 C 190.339844 180.042969 187.769531 179.117188 185.25 178.058594 C 184.777344 177.863281 184.339844 177.601562 183.652344 177.253906 C 185.535156 176.457031 187.140625 175.769531 188.753906 175.109375 C 195.613281 172.296875 202.484375 169.511719 209.789062 168.03125 C 213.382812 167.300781 216.984375 167.070312 220.621094 167.75 C 225.214844 168.605469 228.109375 171.433594 229.589844 175.664062 C 231.027344 179.769531 230.148438 183.59375 227.140625 186.726562 C 223.304688 190.726562 218.699219 193.128906 212.941406 192.695312 C 212.457031 192.65625 211.945312 192.566406 211.480469 192.671875 C 211.089844 192.753906 210.753906 193.089844 210.042969 193.53125 C 210.878906 193.832031 211.292969 194.070312 211.726562 194.121094 C 218.28125 194.859375 223.738281 192.515625 228.144531 187.839844 C 235.480469 180.070312 230.453125 169.957031 223.699219 167.070312 Z M 182.820312 31.105469 C 177.019531 32.03125 171.230469 33.035156 165.417969 33.847656 C 161.671875 34.367188 157.882812 34.503906 154.152344 33.613281 C 152.226562 33.152344 150.40625 32.4375 148.96875 31.015625 C 147.320312 29.382812 147.480469 28.164062 149.550781 27.09375 C 151.964844 25.839844 154.628906 25.484375 157.273438 25.328125 C 163.308594 24.972656 169.316406 25.410156 175.171875 26.972656 C 177.308594 27.542969 179.324219 28.578125 181.359375 29.480469 C 181.957031 29.746094 182.4375 30.273438 182.976562 30.675781 C 182.917969 30.8125 182.867188 30.960938 182.820312 31.105469 Z M 160.230469 101.167969 C 159.183594 99.6875 158.128906 98.191406 157.292969 96.589844 C 155.34375 92.835938 156.058594 89.5 159.464844 86.988281 C 161.136719 85.757812 163.03125 84.769531 164.941406 83.953125 C 168.214844 82.554688 171.578125 81.363281 174.910156 80.117188 C 178.425781 78.800781 181.324219 76.90625 183.617188 74.46875 C 186.023438 71.917969 187.777344 68.765625 188.910156 65.050781 C 189.460938 63.25 190.007812 61.441406 190.386719 59.597656 C 191.648438 53.460938 192.175781 47.269531 190.5625 41.128906 C 189.828125 38.320312 188.550781 35.65625 187.480469 32.789062 C 189.664062 33.15625 191.246094 34.414062 192.511719 36.160156 C 194.089844 38.347656 195.007812 40.835938 195.613281 43.433594 C 196.925781 49.117188 197.25 54.878906 197.046875 60.699219 C 196.917969 64.785156 196.554688 68.851562 195.957031 72.894531 C 195.382812 76.800781 194.5625 80.652344 193.496094 84.453125 C 191.847656 90.339844 189.636719 95.96875 186.105469 101.011719 C 182.867188 105.644531 178.855469 109.300781 173.273438 110.945312 C 170.75 111.6875 168.203125 111.84375 165.554688 111.550781 C 165.402344 111.222656 165.214844 110.925781 165.121094 110.601562 C 164.121094 107.128906 162.304688 104.085938 160.230469 101.167969 Z M 147.65625 171.917969 C 147.34375 170.351562 147.820312 168.992188 148.824219 168.402344 C 149.90625 167.765625 151.492188 168.015625 152.699219 169.035156 C 155.644531 171.507812 155.164062 176.484375 152.128906 178.332031 C 149.914062 176.734375 148.210938 174.734375 147.65625 171.917969 Z M 191.890625 182.488281 C 193.792969 183.378906 195.539062 184.511719 197.128906 185.886719 C 199.417969 187.886719 199.472656 189.886719 197.671875 192.367188 C 195.773438 194.988281 193.15625 196.707031 190.261719 198.046875 C 186.8125 199.644531 183.136719 200.519531 179.429688 201.246094 C 170.5625 202.996094 161.632812 204.261719 152.554688 203.882812 C 147.023438 203.648438 141.535156 203.015625 136.3125 201.015625 C 134.746094 200.40625 133.25 199.667969 131.816406 198.789062 C 130.804688 198.15625 129.90625 197.390625 129.128906 196.484375 C 126.210938 193.164062 126.792969 189.621094 130.582031 187.351562 C 133.078125 185.855469 135.894531 185.257812 138.699219 184.65625 C 140.679688 184.226562 142.703125 183.933594 144.636719 183.371094 C 147.238281 182.613281 149.78125 181.65625 152.851562 180.613281 C 159.230469 184.066406 166.144531 183.042969 173.0625 181.039062 C 175.339844 180.375 177.578125 179.558594 179.796875 178.71875 C 180.839844 178.320312 181.734375 178.230469 182.804688 178.695312 C 185.8125 180 188.929688 181.074219 191.890625 182.488281 Z M 191.890625 182.488281 " fill-opacity="1" fill-rule="nonzero"/></g><g fill="#dfd8d8" fill-opacity="1"><g transform="translate(56.714652, 265.314593)"><g><path d="M 3.023438 0 L 7.132812 0 C 7.359375 0 7.539062 -0.046875 7.671875 -0.226562 C 7.808594 -0.359375 7.898438 -0.542969 7.898438 -0.765625 C 7.898438 -0.859375 7.855469 -0.949219 7.855469 -1.039062 L 7.359375 -2.390625 C 7.359375 -2.4375 7.3125 -2.484375 7.3125 -2.527344 C 7.3125 -2.527344 7.3125 -2.574219 7.3125 -2.664062 L 7.3125 -21.304688 C 7.3125 -21.484375 7.359375 -21.621094 7.492188 -21.757812 C 7.628906 -21.890625 7.808594 -21.980469 7.988281 -21.980469 L 13.585938 -21.980469 C 13.585938 -21.980469 13.632812 -21.9375 13.675781 -21.9375 C 13.675781 -21.9375 13.722656 -21.9375 13.8125 -21.9375 L 15.167969 -21.441406 C 15.390625 -21.351562 15.617188 -21.351562 15.84375 -21.53125 C 16.070312 -21.667969 16.203125 -21.890625 16.203125 -22.164062 L 16.203125 -26.269531 C 16.203125 -26.496094 16.113281 -26.675781 15.980469 -26.8125 C 15.796875 -26.949219 15.617188 -27.039062 15.4375 -27.039062 C 15.300781 -27.039062 15.210938 -26.992188 15.167969 -26.992188 L 13.8125 -26.542969 C 13.722656 -26.496094 13.675781 -26.496094 13.585938 -26.496094 L 7.988281 -26.496094 C 7.808594 -26.496094 7.628906 -26.542969 7.492188 -26.675781 C 7.359375 -26.765625 7.3125 -26.949219 7.3125 -27.171875 L 7.3125 -34.125 C 7.3125 -34.351562 7.359375 -34.53125 7.539062 -34.667969 C 7.671875 -34.800781 7.855469 -34.890625 8.078125 -34.890625 L 16.566406 -34.890625 C 16.65625 -34.890625 16.746094 -34.847656 16.792969 -34.847656 L 18.191406 -34.351562 C 18.417969 -34.261719 18.640625 -34.261719 18.867188 -34.441406 C 19.046875 -34.574219 19.183594 -34.757812 19.183594 -35.027344 L 19.183594 -38.636719 C 19.183594 -39.136719 18.914062 -39.40625 18.417969 -39.40625 L -1.804688 -39.40625 C -2.03125 -39.40625 -2.210938 -39.316406 -2.347656 -39.179688 C -2.527344 -39.042969 -2.574219 -38.863281 -2.574219 -38.636719 L -2.574219 -35.027344 C -2.574219 -34.53125 -2.347656 -34.304688 -1.851562 -34.304688 C -1.761719 -34.304688 -1.671875 -34.304688 -1.578125 -34.351562 L -0.179688 -34.847656 C -0.136719 -34.847656 -0.046875 -34.890625 0.046875 -34.890625 L 2.03125 -34.890625 C 2.210938 -34.890625 2.390625 -34.800781 2.574219 -34.667969 C 2.707031 -34.484375 2.796875 -34.304688 2.796875 -34.078125 L 2.796875 -27.355469 C 2.796875 -27.082031 2.707031 -26.902344 2.574219 -26.765625 C 2.390625 -26.585938 2.210938 -26.542969 2.03125 -26.542969 C 1.128906 -26.542969 0.179688 -26.496094 -0.722656 -26.449219 C -1.671875 -26.40625 -2.617188 -26.316406 -3.519531 -26.179688 C -6.769531 -25.683594 -9.296875 -24.554688 -11.148438 -22.839844 C -12.59375 -21.484375 -13.542969 -19.816406 -13.949219 -17.875 C -14.039062 -17.511719 -14.082031 -17.152344 -14.128906 -16.792969 C -14.171875 -16.429688 -14.171875 -16.113281 -14.171875 -15.753906 C -14.171875 -14.488281 -13.949219 -13.316406 -13.496094 -12.234375 C -12.773438 -10.472656 -11.511719 -9.074219 -9.796875 -7.988281 C -9.027344 -7.492188 -8.214844 -7.132812 -7.3125 -6.859375 C -6.453125 -6.589844 -5.550781 -6.453125 -4.605469 -6.453125 C -4.515625 -6.453125 -4.378906 -6.410156 -4.242188 -6.363281 C -4.109375 -6.273438 -3.703125 -6.140625 -2.980469 -5.914062 C -2.753906 -5.824219 -2.527344 -5.824219 -2.300781 -6.003906 C -2.078125 -6.140625 -1.941406 -6.363281 -1.941406 -6.636719 L -1.941406 -10.789062 C -1.941406 -10.96875 -2.03125 -11.148438 -2.167969 -11.328125 C -2.347656 -11.464844 -2.527344 -11.554688 -2.753906 -11.554688 C -2.84375 -11.554688 -2.933594 -11.511719 -2.980469 -11.511719 C -3.339844 -11.328125 -3.65625 -11.238281 -3.835938 -11.195312 C -4.015625 -11.105469 -4.152344 -11.058594 -4.242188 -11.015625 C -4.332031 -10.96875 -4.421875 -10.96875 -4.46875 -10.96875 L -4.558594 -10.96875 C -5.640625 -10.96875 -6.589844 -11.285156 -7.449219 -11.828125 C -8.351562 -12.367188 -8.9375 -13.089844 -9.296875 -13.992188 C -9.570312 -14.535156 -9.660156 -15.167969 -9.660156 -15.796875 C -9.660156 -16.160156 -9.613281 -16.566406 -9.523438 -16.925781 C -9.433594 -17.421875 -9.253906 -17.875 -8.984375 -18.324219 C -8.757812 -18.777344 -8.484375 -19.136719 -8.125 -19.5 C -7.539062 -20.042969 -6.859375 -20.449219 -6.09375 -20.808594 C -5.328125 -21.125 -4.515625 -21.394531 -3.609375 -21.574219 C -2.707031 -21.757812 -1.804688 -21.847656 -0.859375 -21.9375 C 0.0898438 -21.980469 1.039062 -22.027344 2.03125 -22.027344 C 2.210938 -22.027344 2.390625 -21.9375 2.574219 -21.800781 C 2.707031 -21.621094 2.796875 -21.441406 2.796875 -21.214844 L 2.796875 -2.664062 C 2.796875 -2.527344 2.753906 -2.4375 2.753906 -2.390625 L 2.300781 -1.039062 C 2.210938 -0.765625 2.210938 -0.542969 2.390625 -0.316406 C 2.527344 -0.0898438 2.753906 0 3.023438 0 Z M 3.023438 0 "/></g></g></g><g fill="#dfd8d8" fill-opacity="1"><g transform="translate(77.24807, 265.314593)"><g><path d="M 10.652344 -6.230469 L 18.460938 -6.230469 C 18.640625 -6.230469 18.824219 -6.273438 19.003906 -6.453125 C 19.136719 -6.589844 19.230469 -6.769531 19.230469 -6.996094 L 19.230469 -10.609375 C 19.230469 -11.058594 18.957031 -11.328125 18.507812 -11.328125 C 18.371094 -11.328125 18.28125 -11.285156 18.234375 -11.285156 L 16.835938 -10.789062 C 16.746094 -10.742188 16.65625 -10.742188 16.566406 -10.742188 L 8.125 -10.742188 C 7.855469 -10.742188 7.671875 -10.789062 7.539062 -10.96875 C 7.402344 -11.105469 7.359375 -11.285156 7.359375 -11.511719 L 7.359375 -16.699219 C 7.359375 -16.882812 7.402344 -17.015625 7.539062 -17.152344 C 7.671875 -17.289062 7.855469 -17.378906 8.035156 -17.378906 L 13.585938 -17.378906 C 13.675781 -17.378906 13.765625 -17.332031 13.859375 -17.332031 L 15.210938 -16.835938 C 15.4375 -16.746094 15.664062 -16.746094 15.886719 -16.925781 C 16.070312 -17.0625 16.203125 -17.289062 16.203125 -17.558594 L 16.203125 -21.710938 C 16.203125 -22.207031 15.933594 -22.480469 15.480469 -22.480469 C 15.347656 -22.480469 15.257812 -22.433594 15.210938 -22.433594 L 13.859375 -21.9375 C 13.765625 -21.890625 13.675781 -21.890625 13.585938 -21.890625 L 8.035156 -21.890625 C 7.855469 -21.890625 7.671875 -21.9375 7.539062 -22.074219 C 7.402344 -22.207031 7.359375 -22.386719 7.359375 -22.570312 L 7.359375 -24.058594 C 7.359375 -24.238281 7.402344 -24.417969 7.539062 -24.601562 C 7.671875 -24.734375 7.855469 -24.824219 8.125 -24.824219 L 16.566406 -24.824219 C 16.65625 -24.824219 16.746094 -24.78125 16.835938 -24.78125 L 18.234375 -24.285156 C 18.460938 -24.195312 18.6875 -24.195312 18.914062 -24.375 C 19.09375 -24.511719 19.230469 -24.691406 19.230469 -24.960938 L 19.230469 -28.574219 C 19.230469 -28.753906 19.136719 -28.933594 19.003906 -29.113281 C 18.824219 -29.25 18.640625 -29.339844 18.460938 -29.339844 L 2.84375 -29.339844 L 2.84375 -29.292969 C 2.4375 -29.203125 2.257812 -28.933594 2.257812 -28.574219 C 2.257812 -28.4375 2.257812 -28.347656 2.300781 -28.300781 L 2.796875 -26.949219 C 2.796875 -26.855469 2.796875 -26.8125 2.796875 -26.8125 C 2.796875 -26.765625 2.84375 -26.722656 2.84375 -26.722656 L 2.84375 -8.847656 C 2.84375 -8.800781 2.796875 -8.757812 2.796875 -8.757812 C 2.796875 -8.710938 2.796875 -8.667969 2.796875 -8.621094 L 2.300781 -7.265625 C 2.210938 -6.996094 2.257812 -6.816406 2.347656 -6.636719 C 2.4375 -6.453125 2.574219 -6.320312 2.84375 -6.273438 L 3.519531 -6.230469 C 3.972656 -6.230469 4.558594 -6.230469 5.28125 -6.230469 Z M 3.023438 0 L 18.460938 0 C 18.640625 0 18.824219 -0.046875 19.003906 -0.226562 C 19.136719 -0.359375 19.230469 -0.542969 19.230469 -0.765625 L 19.230469 -2.753906 C 19.230469 -2.933594 19.136719 -3.113281 19.003906 -3.296875 C 18.824219 -3.429688 18.640625 -3.519531 18.460938 -3.519531 L 3.023438 -3.519531 C 2.796875 -3.519531 2.617188 -3.429688 2.484375 -3.296875 C 2.300781 -3.113281 2.257812 -2.933594 2.257812 -2.753906 L 2.257812 -0.765625 C 2.257812 -0.542969 2.300781 -0.359375 2.484375 -0.226562 C 2.617188 -0.046875 2.796875 0 3.023438 0 Z M 3.023438 0 "/></g></g></g><g fill="#dfd8d8" fill-opacity="1"><g transform="translate(98.72919, 265.314593)"><g><path d="M 16.25 5.101562 L 20.355469 5.101562 C 20.671875 5.101562 20.855469 4.964844 20.855469 4.648438 C 20.855469 4.421875 20.761719 4.242188 20.628906 4.0625 L 19.5 2.707031 L 19.320312 2.4375 L 17.289062 -2.03125 C 16.699219 -3.296875 16.113281 -4.558594 15.480469 -5.914062 C 14.851562 -7.222656 14.308594 -8.351562 13.902344 -9.34375 C 13.675781 -9.75 13.765625 -10.066406 14.171875 -10.292969 C 14.894531 -10.742188 15.527344 -11.375 16.070312 -12.097656 C 16.609375 -12.820312 17.0625 -13.542969 17.421875 -14.355469 C 17.785156 -15.167969 18.101562 -15.980469 18.28125 -16.792969 C 18.460938 -17.605469 18.550781 -18.324219 18.550781 -19.003906 C 18.550781 -20.265625 18.28125 -21.53125 17.828125 -22.792969 C 17.378906 -24.058594 16.65625 -25.140625 15.753906 -26.136719 C 14.851562 -27.082031 13.675781 -27.851562 12.277344 -28.4375 C 10.878906 -29.023438 9.253906 -29.339844 7.402344 -29.339844 L 3.023438 -29.339844 C 2.796875 -29.339844 2.617188 -29.25 2.484375 -29.113281 C 2.300781 -28.933594 2.257812 -28.753906 2.257812 -28.527344 C 2.257812 -28.4375 2.257812 -28.347656 2.300781 -28.300781 L 2.796875 -26.949219 C 2.796875 -26.855469 2.84375 -26.8125 2.84375 -26.722656 L 2.84375 -2.617188 C 2.84375 -2.527344 2.796875 -2.4375 2.796875 -2.390625 L 2.300781 -1.039062 C 2.210938 -0.765625 2.210938 -0.542969 2.390625 -0.316406 C 2.574219 -0.0898438 2.753906 0 3.023438 0 L 7.175781 0 C 7.402344 0 7.582031 -0.046875 7.71875 -0.226562 C 7.855469 -0.359375 7.945312 -0.542969 7.945312 -0.765625 C 7.945312 -0.859375 7.898438 -0.949219 7.898438 -1.039062 L 7.402344 -2.390625 C 7.402344 -2.4375 7.359375 -2.484375 7.359375 -2.527344 C 7.359375 -2.527344 7.359375 -2.574219 7.359375 -2.617188 L 7.359375 -7.945312 C 7.359375 -8.125 7.402344 -8.304688 7.582031 -8.484375 C 7.71875 -8.621094 7.898438 -8.710938 8.125 -8.710938 C 8.261719 -8.710938 8.394531 -8.710938 8.578125 -8.710938 C 8.757812 -8.710938 8.890625 -8.757812 9.074219 -8.757812 C 9.433594 -8.800781 9.660156 -8.667969 9.839844 -8.351562 L 14.804688 2.4375 C 14.851562 2.574219 14.894531 2.664062 14.894531 2.707031 L 15.03125 4.0625 C 15.03125 4.332031 15.167969 4.558594 15.4375 4.785156 C 15.707031 5.011719 15.980469 5.101562 16.25 5.101562 Z M 8.171875 -13.226562 C 7.898438 -13.226562 7.71875 -13.269531 7.582031 -13.40625 C 7.402344 -13.542969 7.359375 -13.722656 7.359375 -13.992188 L 7.359375 -24.058594 C 7.359375 -24.238281 7.402344 -24.417969 7.582031 -24.601562 C 7.71875 -24.734375 7.898438 -24.824219 8.171875 -24.824219 C 9.164062 -24.734375 10.066406 -24.511719 10.832031 -24.105469 C 11.554688 -23.652344 12.1875 -23.15625 12.640625 -22.570312 C 13.089844 -21.980469 13.453125 -21.394531 13.675781 -20.761719 C 13.902344 -20.132812 14.039062 -19.542969 14.039062 -19.09375 C 14.039062 -18.597656 13.902344 -18.011719 13.722656 -17.378906 C 13.496094 -16.699219 13.136719 -16.070312 12.683594 -15.480469 C 12.234375 -14.851562 11.601562 -14.355469 10.878906 -13.902344 C 10.15625 -13.453125 9.253906 -13.226562 8.171875 -13.226562 Z M 8.171875 -13.226562 "/></g></g></g><g fill="#dfd8d8" fill-opacity="1"><g transform="translate(120.932359, 265.314593)"><g><path d="M 3.023438 0 L 7.175781 0 C 7.359375 0 7.539062 -0.046875 7.71875 -0.226562 C 7.855469 -0.359375 7.945312 -0.542969 7.945312 -0.8125 C 7.945312 -0.902344 7.898438 -0.949219 7.898438 -1.039062 L 7.402344 -2.390625 C 7.359375 -2.4375 7.359375 -2.527344 7.359375 -2.617188 L 7.359375 -26.722656 C 7.359375 -26.8125 7.359375 -26.855469 7.402344 -26.949219 L 7.898438 -28.300781 C 7.988281 -28.527344 7.945312 -28.753906 7.765625 -28.980469 C 7.582031 -29.203125 7.402344 -29.339844 7.175781 -29.339844 L 3.023438 -29.339844 C 2.753906 -29.339844 2.574219 -29.25 2.4375 -29.113281 C 2.300781 -28.933594 2.257812 -28.753906 2.257812 -28.574219 C 2.257812 -28.4375 2.257812 -28.347656 2.300781 -28.300781 L 2.796875 -26.949219 C 2.796875 -26.855469 2.796875 -26.8125 2.796875 -26.8125 C 2.796875 -26.765625 2.84375 -26.722656 2.84375 -26.722656 L 2.84375 -2.617188 C 2.84375 -2.574219 2.796875 -2.527344 2.796875 -2.527344 C 2.796875 -2.484375 2.796875 -2.4375 2.796875 -2.390625 L 2.300781 -1.039062 C 2.210938 -0.765625 2.210938 -0.542969 2.390625 -0.316406 C 2.527344 -0.0898438 2.753906 0 3.023438 0 Z M 3.023438 0 "/></g></g></g><g fill="#dfd8d8" fill-opacity="1"><g transform="translate(131.131374, 265.314593)"><g><path d="M 1.488281 -6.230469 L 5.640625 -6.230469 C 5.867188 -6.230469 6.09375 -6.320312 6.320312 -6.546875 C 6.546875 -6.726562 6.636719 -6.953125 6.636719 -7.222656 L 6.5 -8.578125 C 6.5 -8.667969 6.5 -8.757812 6.546875 -8.847656 C 6.546875 -8.847656 6.589844 -9.074219 6.679688 -9.480469 C 6.769531 -9.886719 6.953125 -10.425781 7.132812 -11.105469 C 7.175781 -11.285156 7.265625 -11.421875 7.449219 -11.511719 C 7.582031 -11.601562 7.765625 -11.691406 7.945312 -11.691406 L 8.035156 -11.691406 L 12.007812 -10.921875 C 12.277344 -10.832031 12.503906 -10.652344 12.59375 -10.382812 L 13 -8.800781 C 13 -8.710938 13 -8.667969 13 -8.667969 C 13 -8.667969 13 -8.621094 13 -8.578125 L 12.910156 -7.222656 C 12.863281 -6.953125 12.953125 -6.726562 13.179688 -6.546875 C 13.359375 -6.320312 13.632812 -6.230469 13.902344 -6.230469 L 18.011719 -6.230469 C 18.371094 -6.230469 18.597656 -6.410156 18.597656 -6.769531 C 18.597656 -6.90625 18.550781 -7.042969 18.460938 -7.222656 L 17.605469 -8.578125 C 17.511719 -8.667969 17.511719 -8.757812 17.511719 -8.847656 L 12.863281 -26.179688 C 12.820312 -26.269531 12.773438 -26.40625 12.773438 -26.496094 C 12.773438 -26.585938 12.773438 -26.675781 12.773438 -26.8125 C 12.773438 -27.082031 12.820312 -27.445312 13 -27.804688 L 13.226562 -28.300781 C 13.316406 -28.527344 13.269531 -28.753906 13.089844 -28.980469 C 12.910156 -29.203125 12.640625 -29.339844 12.324219 -29.339844 L 7.175781 -29.339844 C 6.90625 -29.339844 6.679688 -29.25 6.5 -29.113281 C 6.320312 -28.933594 6.230469 -28.753906 6.230469 -28.574219 C 6.230469 -28.4375 6.230469 -28.347656 6.273438 -28.300781 L 6.546875 -27.804688 C 6.636719 -27.535156 6.726562 -27.21875 6.726562 -26.855469 C 6.726562 -26.542969 6.679688 -26.316406 6.636719 -26.179688 C 5.734375 -22.839844 4.964844 -20.085938 4.421875 -18.011719 C 3.882812 -15.886719 3.429688 -14.21875 3.113281 -13.046875 C 2.753906 -11.828125 2.527344 -10.96875 2.390625 -10.472656 C 2.257812 -9.929688 2.167969 -9.613281 2.121094 -9.433594 C 2.078125 -9.253906 2.078125 -9.164062 2.078125 -9.164062 C 2.078125 -9.164062 2.03125 -9.027344 1.984375 -8.847656 C 1.984375 -8.757812 1.941406 -8.667969 1.894531 -8.578125 L 1.039062 -7.222656 C 0.949219 -7.042969 0.902344 -6.90625 0.902344 -6.769531 C 0.902344 -6.410156 1.082031 -6.230469 1.488281 -6.230469 Z M 10.109375 -15.886719 L 9.976562 -15.886719 L 9.296875 -16.023438 C 8.847656 -16.113281 8.667969 -16.339844 8.667969 -16.746094 C 8.667969 -16.835938 8.667969 -16.882812 8.710938 -16.972656 C 8.890625 -17.695312 9.074219 -18.324219 9.207031 -18.824219 C 9.296875 -19.320312 9.390625 -19.589844 9.390625 -19.636719 C 9.433594 -19.769531 9.570312 -19.859375 9.75 -19.859375 C 9.929688 -19.859375 10.066406 -19.769531 10.109375 -19.636719 L 10.832031 -16.835938 C 10.921875 -16.566406 10.878906 -16.339844 10.699219 -16.160156 C 10.515625 -15.980469 10.335938 -15.886719 10.109375 -15.886719 Z M 1.671875 0 L 17.828125 0 C 18.054688 0 18.234375 -0.046875 18.371094 -0.226562 C 18.507812 -0.359375 18.597656 -0.542969 18.597656 -0.765625 L 18.597656 -2.753906 C 18.597656 -2.933594 18.507812 -3.113281 18.371094 -3.296875 C 18.234375 -3.429688 18.054688 -3.519531 17.828125 -3.519531 L 1.671875 -3.519531 C 1.445312 -3.519531 1.265625 -3.429688 1.128906 -3.296875 C 0.949219 -3.113281 0.902344 -2.933594 0.902344 -2.753906 L 0.902344 -0.765625 C 0.902344 -0.542969 0.949219 -0.359375 1.128906 -0.226562 C 1.265625 -0.046875 1.445312 0 1.671875 0 Z M 1.671875 0 "/></g></g></g><g fill="#dfd8d8" fill-opacity="1"><g transform="translate(150.626846, 265.314593)"><g/></g></g><g fill="#dfd8d8" fill-opacity="1"><g transform="translate(164.165363, 265.314593)"><g><path d="M 3.023438 0 L 7.402344 0 C 9.027344 0 10.609375 -0.359375 12.050781 -1.128906 C 13.496094 -1.894531 14.804688 -2.933594 15.886719 -4.289062 C 16.972656 -5.597656 17.828125 -7.132812 18.460938 -8.9375 C 19.09375 -10.699219 19.410156 -12.59375 19.410156 -14.667969 C 19.410156 -16.65625 19.09375 -18.550781 18.460938 -20.355469 C 17.828125 -22.164062 16.972656 -23.699219 15.886719 -25.050781 C 14.804688 -26.359375 13.496094 -27.398438 12.050781 -28.167969 C 10.609375 -28.933594 9.027344 -29.339844 7.402344 -29.339844 L 3.023438 -29.339844 C 2.753906 -29.339844 2.574219 -29.25 2.4375 -29.113281 C 2.300781 -28.933594 2.257812 -28.753906 2.257812 -28.574219 C 2.257812 -28.4375 2.257812 -28.347656 2.300781 -28.300781 L 2.796875 -26.949219 C 2.796875 -26.855469 2.796875 -26.8125 2.796875 -26.8125 C 2.796875 -26.765625 2.84375 -26.722656 2.84375 -26.722656 L 2.84375 -2.617188 C 2.84375 -2.574219 2.796875 -2.527344 2.796875 -2.527344 C 2.796875 -2.484375 2.796875 -2.4375 2.796875 -2.390625 L 2.300781 -1.039062 C 2.210938 -0.765625 2.210938 -0.542969 2.390625 -0.316406 C 2.527344 -0.0898438 2.753906 0 3.023438 0 Z M 7.988281 -4.558594 C 7.808594 -4.515625 7.628906 -4.558594 7.539062 -4.695312 C 7.402344 -4.785156 7.359375 -4.964844 7.359375 -5.144531 L 7.359375 -24.195312 C 7.359375 -24.554688 7.539062 -24.78125 7.945312 -24.78125 L 7.988281 -24.78125 C 8.9375 -24.691406 9.839844 -24.328125 10.699219 -23.789062 C 11.511719 -23.199219 12.234375 -22.433594 12.863281 -21.53125 C 13.496094 -20.628906 13.992188 -19.589844 14.355469 -18.417969 C 14.714844 -17.242188 14.894531 -15.980469 14.894531 -14.667969 C 14.894531 -13.40625 14.714844 -12.234375 14.355469 -11.058594 C 13.992188 -9.886719 13.542969 -8.800781 12.953125 -7.898438 C 12.324219 -6.953125 11.601562 -6.183594 10.789062 -5.597656 C 9.929688 -4.964844 8.984375 -4.648438 7.988281 -4.558594 Z M 7.988281 -4.558594 "/></g></g></g><g fill="#dfd8d8" fill-opacity="1"><g transform="translate(184.924423, 265.314593)"><g><path d="M 10.652344 -6.230469 L 18.460938 -6.230469 C 18.640625 -6.230469 18.824219 -6.273438 19.003906 -6.453125 C 19.136719 -6.589844 19.230469 -6.769531 19.230469 -6.996094 L 19.230469 -10.609375 C 19.230469 -11.058594 18.957031 -11.328125 18.507812 -11.328125 C 18.371094 -11.328125 18.28125 -11.285156 18.234375 -11.285156 L 16.835938 -10.789062 C 16.746094 -10.742188 16.65625 -10.742188 16.566406 -10.742188 L 8.125 -10.742188 C 7.855469 -10.742188 7.671875 -10.789062 7.539062 -10.96875 C 7.402344 -11.105469 7.359375 -11.285156 7.359375 -11.511719 L 7.359375 -16.699219 C 7.359375 -16.882812 7.402344 -17.015625 7.539062 -17.152344 C 7.671875 -17.289062 7.855469 -17.378906 8.035156 -17.378906 L 13.585938 -17.378906 C 13.675781 -17.378906 13.765625 -17.332031 13.859375 -17.332031 L 15.210938 -16.835938 C 15.4375 -16.746094 15.664062 -16.746094 15.886719 -16.925781 C 16.070312 -17.0625 16.203125 -17.289062 16.203125 -17.558594 L 16.203125 -21.710938 C 16.203125 -22.207031 15.933594 -22.480469 15.480469 -22.480469 C 15.347656 -22.480469 15.257812 -22.433594 15.210938 -22.433594 L 13.859375 -21.9375 C 13.765625 -21.890625 13.675781 -21.890625 13.585938 -21.890625 L 8.035156 -21.890625 C 7.855469 -21.890625 7.671875 -21.9375 7.539062 -22.074219 C 7.402344 -22.207031 7.359375 -22.386719 7.359375 -22.570312 L 7.359375 -24.058594 C 7.359375 -24.238281 7.402344 -24.417969 7.539062 -24.601562 C 7.671875 -24.734375 7.855469 -24.824219 8.125 -24.824219 L 16.566406 -24.824219 C 16.65625 -24.824219 16.746094 -24.78125 16.835938 -24.78125 L 18.234375 -24.285156 C 18.460938 -24.195312 18.6875 -24.195312 18.914062 -24.375 C 19.09375 -24.511719 19.230469 -24.691406 19.230469 -24.960938 L 19.230469 -28.574219 C 19.230469 -28.753906 19.136719 -28.933594 19.003906 -29.113281 C 18.824219 -29.25 18.640625 -29.339844 18.460938 -29.339844 L 2.84375 -29.339844 L 2.84375 -29.292969 C 2.4375 -29.203125 2.257812 -28.933594 2.257812 -28.574219 C 2.257812 -28.4375 2.257812 -28.347656 2.300781 -28.300781 L 2.796875 -26.949219 C 2.796875 -26.855469 2.796875 -26.8125 2.796875 -26.8125 C 2.796875 -26.765625 2.84375 -26.722656 2.84375 -26.722656 L 2.84375 -8.847656 C 2.84375 -8.800781 2.796875 -8.757812 2.796875 -8.757812 C 2.796875 -8.710938 2.796875 -8.667969 2.796875 -8.621094 L 2.300781 -7.265625 C 2.210938 -6.996094 2.257812 -6.816406 2.347656 -6.636719 C 2.4375 -6.453125 2.574219 -6.320312 2.84375 -6.273438 L 3.519531 -6.230469 C 3.972656 -6.230469 4.558594 -6.230469 5.28125 -6.230469 Z M 3.023438 0 L 18.460938 0 C 18.640625 0 18.824219 -0.046875 19.003906 -0.226562 C 19.136719 -0.359375 19.230469 -0.542969 19.230469 -0.765625 L 19.230469 -2.753906 C 19.230469 -2.933594 19.136719 -3.113281 19.003906 -3.296875 C 18.824219 -3.429688 18.640625 -3.519531 18.460938 -3.519531 L 3.023438 -3.519531 C 2.796875 -3.519531 2.617188 -3.429688 2.484375 -3.296875 C 2.300781 -3.113281 2.257812 -2.933594 2.257812 -2.753906 L 2.257812 -0.765625 C 2.257812 -0.542969 2.300781 -0.359375 2.484375 -0.226562 C 2.617188 -0.046875 2.796875 0 3.023438 0 Z M 3.023438 0 "/></g></g></g><g fill="#dfd8d8" fill-opacity="1"><g transform="translate(206.405543, 265.314593)"><g><path d="M 2.84375 -0.046875 L 2.84375 0 L 17.105469 0 C 17.289062 0 17.46875 -0.046875 17.648438 -0.226562 C 17.785156 -0.359375 17.875 -0.542969 17.875 -0.765625 L 17.875 -4.378906 C 17.875 -4.828125 17.605469 -5.101562 17.152344 -5.101562 C 17.015625 -5.101562 16.925781 -5.054688 16.882812 -5.054688 L 15.480469 -4.558594 C 15.390625 -4.515625 15.300781 -4.515625 15.210938 -4.515625 L 8.125 -4.515625 C 7.855469 -4.515625 7.671875 -4.558594 7.539062 -4.738281 C 7.402344 -4.875 7.359375 -5.054688 7.359375 -5.28125 L 7.359375 -26.722656 C 7.359375 -26.8125 7.359375 -26.855469 7.402344 -26.949219 L 7.898438 -28.300781 C 7.988281 -28.527344 7.945312 -28.753906 7.765625 -28.980469 C 7.582031 -29.203125 7.402344 -29.339844 7.175781 -29.339844 L 3.023438 -29.339844 C 2.753906 -29.339844 2.574219 -29.25 2.4375 -29.113281 C 2.300781 -28.933594 2.257812 -28.753906 2.257812 -28.574219 C 2.257812 -28.4375 2.257812 -28.347656 2.300781 -28.300781 L 2.796875 -26.949219 C 2.796875 -26.855469 2.796875 -26.8125 2.796875 -26.8125 C 2.796875 -26.765625 2.84375 -26.722656 2.84375 -26.722656 L 2.84375 -2.617188 C 2.84375 -2.574219 2.796875 -2.527344 2.796875 -2.527344 C 2.796875 -2.484375 2.796875 -2.4375 2.796875 -2.390625 L 2.300781 -1.039062 C 2.210938 -0.765625 2.257812 -0.585938 2.347656 -0.40625 C 2.4375 -0.226562 2.574219 -0.0898438 2.84375 -0.046875 Z M 2.84375 -0.046875 "/></g></g></g><g fill="#dfd8d8" fill-opacity="1"><g transform="translate(225.63024, 265.314593)"><g/></g></g><g fill="#dfd8d8" fill-opacity="1"><g transform="translate(239.168757, 265.314593)"><g><path d="M 8.847656 0 L 14.894531 0 C 15.167969 0 15.390625 -0.046875 15.574219 -0.226562 C 15.753906 -0.359375 15.84375 -0.542969 15.84375 -0.765625 C 15.84375 -0.859375 15.796875 -0.949219 15.796875 -1.039062 L 15.574219 -1.535156 C 15.390625 -1.894531 15.347656 -2.257812 15.347656 -2.574219 C 15.347656 -2.707031 15.347656 -2.890625 15.4375 -3.160156 L 21.757812 -26.722656 C 21.757812 -26.722656 21.757812 -26.8125 21.847656 -26.949219 L 22.703125 -28.300781 C 22.792969 -28.390625 22.839844 -28.574219 22.839844 -28.753906 C 22.839844 -29.113281 22.613281 -29.339844 22.253906 -29.339844 L 17.648438 -29.339844 C 17.378906 -29.339844 17.152344 -29.203125 16.925781 -28.980469 C 16.699219 -28.753906 16.609375 -28.527344 16.65625 -28.300781 L 16.792969 -26.949219 L 16.792969 -26.765625 L 12.234375 -9.703125 C 12.140625 -9.523438 12.050781 -9.480469 11.871094 -9.480469 C 11.691406 -9.480469 11.554688 -9.523438 11.511719 -9.703125 L 6.996094 -26.722656 C 6.953125 -26.722656 6.953125 -26.8125 6.953125 -26.949219 L 7.085938 -28.300781 C 7.085938 -28.527344 6.996094 -28.753906 6.769531 -28.980469 C 6.546875 -29.203125 6.320312 -29.339844 6.09375 -29.339844 L 1.488281 -29.339844 C 1.082031 -29.339844 0.902344 -29.113281 0.902344 -28.753906 C 0.902344 -28.574219 0.949219 -28.390625 1.039062 -28.300781 L 1.894531 -26.949219 C 1.941406 -26.855469 1.984375 -26.8125 1.984375 -26.722656 C 2.484375 -24.824219 3.023438 -22.839844 3.566406 -20.761719 C 4.109375 -18.640625 4.695312 -16.519531 5.28125 -14.445312 C 5.824219 -12.367188 6.363281 -10.335938 6.90625 -8.394531 C 7.402344 -6.453125 7.855469 -4.695312 8.304688 -3.160156 C 8.351562 -2.890625 8.394531 -2.707031 8.394531 -2.574219 C 8.394531 -2.257812 8.304688 -1.894531 8.171875 -1.535156 L 7.945312 -1.039062 C 7.808594 -0.765625 7.855469 -0.542969 8.035156 -0.316406 C 8.214844 -0.0898438 8.484375 0 8.847656 0 Z M 8.847656 0 "/></g></g></g><g fill="#dfd8d8" fill-opacity="1"><g transform="translate(262.906289, 265.314593)"><g><path d="M 3.023438 0 L 7.175781 0 C 7.359375 0 7.539062 -0.046875 7.71875 -0.226562 C 7.855469 -0.359375 7.945312 -0.542969 7.945312 -0.8125 C 7.945312 -0.902344 7.898438 -0.949219 7.898438 -1.039062 L 7.402344 -2.390625 C 7.359375 -2.4375 7.359375 -2.527344 7.359375 -2.617188 L 7.359375 -26.722656 C 7.359375 -26.8125 7.359375 -26.855469 7.402344 -26.949219 L 7.898438 -28.300781 C 7.988281 -28.527344 7.945312 -28.753906 7.765625 -28.980469 C 7.582031 -29.203125 7.402344 -29.339844 7.175781 -29.339844 L 3.023438 -29.339844 C 2.753906 -29.339844 2.574219 -29.25 2.4375 -29.113281 C 2.300781 -28.933594 2.257812 -28.753906 2.257812 -28.574219 C 2.257812 -28.4375 2.257812 -28.347656 2.300781 -28.300781 L 2.796875 -26.949219 C 2.796875 -26.855469 2.796875 -26.8125 2.796875 -26.8125 C 2.796875 -26.765625 2.84375 -26.722656 2.84375 -26.722656 L 2.84375 -2.617188 C 2.84375 -2.574219 2.796875 -2.527344 2.796875 -2.527344 C 2.796875 -2.484375 2.796875 -2.4375 2.796875 -2.390625 L 2.300781 -1.039062 C 2.210938 -0.765625 2.210938 -0.542969 2.390625 -0.316406 C 2.527344 -0.0898438 2.753906 0 3.023438 0 Z M 3.023438 0 "/></g></g></g><g fill="#dfd8d8" fill-opacity="1"><g transform="translate(273.105303, 265.314593)"><g><path d="M 3.023438 0 L 7.175781 0 C 7.359375 0 7.539062 -0.046875 7.71875 -0.226562 C 7.855469 -0.359375 7.945312 -0.542969 7.945312 -0.8125 C 7.945312 -0.902344 7.898438 -0.949219 7.898438 -1.039062 L 7.402344 -2.390625 C 7.359375 -2.4375 7.359375 -2.527344 7.359375 -2.617188 L 7.359375 -17.558594 C 7.359375 -17.738281 7.449219 -17.875 7.671875 -17.875 C 7.765625 -17.875 7.898438 -17.785156 7.988281 -17.695312 L 15.617188 -1.445312 L 15.480469 -1.039062 C 15.390625 -0.765625 15.390625 -0.542969 15.574219 -0.316406 C 15.707031 -0.0898438 15.933594 0 16.203125 0 L 20.3125 0 C 20.539062 0 20.71875 -0.046875 20.855469 -0.226562 C 20.988281 -0.359375 21.078125 -0.542969 21.078125 -0.765625 C 21.078125 -0.859375 21.035156 -0.949219 21.035156 -1.039062 L 20.539062 -2.390625 C 20.539062 -2.4375 20.492188 -2.484375 20.492188 -2.527344 C 20.492188 -2.527344 20.492188 -2.574219 20.492188 -2.617188 L 20.492188 -36.789062 C 20.492188 -36.789062 20.492188 -36.832031 20.492188 -36.878906 C 20.492188 -36.878906 20.539062 -36.921875 20.539062 -37.011719 L 21.035156 -38.367188 C 21.125 -38.59375 21.078125 -38.820312 20.945312 -39.042969 C 20.761719 -39.269531 20.582031 -39.40625 20.3125 -39.40625 L 16.203125 -39.40625 C 15.933594 -39.40625 15.753906 -39.316406 15.617188 -39.179688 C 15.480469 -39 15.4375 -38.820312 15.4375 -38.636719 C 15.4375 -38.503906 15.4375 -38.414062 15.480469 -38.367188 L 15.933594 -37.011719 C 15.933594 -36.921875 15.980469 -36.878906 15.980469 -36.789062 L 15.980469 -11.78125 C 15.980469 -11.554688 15.84375 -11.464844 15.664062 -11.464844 C 15.527344 -11.464844 15.4375 -11.511719 15.347656 -11.644531 C 14.355469 -13.722656 13.585938 -15.390625 13 -16.65625 C 12.367188 -17.917969 11.917969 -18.957031 11.601562 -19.679688 C 11.238281 -20.402344 11.015625 -20.898438 10.878906 -21.214844 L 10.515625 -21.890625 C 10.425781 -22.027344 10.382812 -22.164062 10.335938 -22.296875 C 10.246094 -22.433594 10.15625 -22.703125 9.976562 -23.066406 C 9.796875 -23.425781 9.523438 -23.96875 9.164062 -24.691406 C 8.800781 -25.414062 8.351562 -26.496094 7.71875 -27.894531 L 7.898438 -28.300781 C 7.988281 -28.527344 7.945312 -28.753906 7.765625 -28.980469 C 7.582031 -29.203125 7.402344 -29.339844 7.175781 -29.339844 L 3.023438 -29.339844 C 2.753906 -29.339844 2.574219 -29.25 2.4375 -29.113281 C 2.300781 -28.933594 2.257812 -28.753906 2.257812 -28.574219 C 2.257812 -28.4375 2.257812 -28.347656 2.300781 -28.300781 L 2.796875 -26.949219 C 2.796875 -26.855469 2.796875 -26.8125 2.796875 -26.8125 C 2.796875 -26.765625 2.84375 -26.722656 2.84375 -26.722656 L 2.84375 -2.617188 C 2.84375 -2.574219 2.796875 -2.527344 2.796875 -2.527344 C 2.796875 -2.484375 2.796875 -2.4375 2.796875 -2.390625 L 2.300781 -1.039062 C 2.210938 -0.765625 2.210938 -0.542969 2.390625 -0.316406 C 2.527344 -0.0898438 2.753906 0 3.023438 0 Z M 3.023438 0 "/></g></g></g><g fill="#dfd8d8" fill-opacity="1"><g transform="translate(296.436684, 265.314593)"><g><path d="M 10.921875 -6.230469 C 12.234375 -6.230469 13.496094 -6.5 14.667969 -7.132812 C 15.84375 -7.71875 16.835938 -8.53125 17.695312 -9.613281 C 18.550781 -10.652344 19.230469 -11.871094 19.726562 -13.269531 C 20.222656 -14.667969 20.492188 -16.160156 20.492188 -17.785156 C 20.492188 -19.320312 20.222656 -20.808594 19.726562 -22.253906 C 19.230469 -23.652344 18.550781 -24.871094 17.695312 -25.910156 C 16.835938 -26.949219 15.84375 -27.761719 14.667969 -28.390625 C 13.496094 -29.023438 12.277344 -29.339844 10.921875 -29.339844 C 9.570312 -29.339844 8.351562 -29.023438 7.175781 -28.4375 C 6.003906 -27.804688 4.964844 -26.992188 4.109375 -25.953125 C 3.25 -24.871094 2.574219 -23.652344 2.078125 -22.253906 C 1.578125 -20.855469 1.355469 -19.363281 1.355469 -17.785156 C 1.355469 -16.160156 1.578125 -14.667969 2.078125 -13.269531 C 2.574219 -11.871094 3.25 -10.652344 4.109375 -9.613281 C 4.964844 -8.53125 5.957031 -7.71875 7.132812 -7.132812 C 8.304688 -6.5 9.570312 -6.230469 10.921875 -6.230469 Z M 10.921875 -10.742188 C 10.203125 -10.742188 9.570312 -10.921875 8.984375 -11.285156 C 8.351562 -11.644531 7.808594 -12.1875 7.359375 -12.820312 C 6.90625 -13.453125 6.546875 -14.171875 6.273438 -15.03125 C 6.003906 -15.886719 5.867188 -16.792969 5.867188 -17.785156 C 5.867188 -18.730469 6.003906 -19.636719 6.273438 -20.492188 C 6.546875 -21.351562 6.90625 -22.117188 7.359375 -22.75 C 7.808594 -23.382812 8.351562 -23.878906 8.984375 -24.238281 C 9.570312 -24.601562 10.203125 -24.824219 10.921875 -24.824219 C 11.554688 -24.824219 12.1875 -24.601562 12.820312 -24.238281 C 13.453125 -23.878906 13.992188 -23.382812 14.445312 -22.75 C 14.894531 -22.117188 15.300781 -21.351562 15.574219 -20.492188 C 15.84375 -19.636719 15.980469 -18.730469 15.980469 -17.785156 C 15.980469 -16.792969 15.84375 -15.886719 15.574219 -15.03125 C 15.300781 -14.171875 14.941406 -13.453125 14.488281 -12.820312 C 14.039062 -12.1875 13.496094 -11.644531 12.863281 -11.285156 C 12.234375 -10.921875 11.601562 -10.742188 10.921875 -10.742188 Z M 2.121094 0 L 19.726562 0 C 19.90625 0 20.085938 -0.046875 20.265625 -0.226562 C 20.402344 -0.359375 20.492188 -0.542969 20.492188 -0.765625 L 20.492188 -2.753906 C 20.492188 -2.933594 20.402344 -3.113281 20.265625 -3.296875 C 20.085938 -3.429688 19.90625 -3.519531 19.726562 -3.519531 L 2.121094 -3.519531 C 1.894531 -3.519531 1.714844 -3.429688 1.578125 -3.296875 C 1.398438 -3.113281 1.355469 -2.933594 1.355469 -2.753906 L 1.355469 -0.765625 C 1.355469 -0.542969 1.398438 -0.359375 1.578125 -0.226562 C 1.714844 -0.046875 1.894531 0 2.121094 0 Z M 2.121094 0 "/></g></g></g><g fill="#dfd8d8" fill-opacity="1"><g transform="translate(110.905534, 301.390458)"><g><path d="M 7.609375 -8.109375 C 8.296875 -8.109375 8.882812 -8.351562 9.375 -8.84375 L 9.546875 -8.609375 C 9.242188 -8.109375 8.820312 -7.691406 8.28125 -7.359375 C 7.507812 -6.867188 6.6875 -6.625 5.8125 -6.625 C 4.738281 -6.625 3.765625 -6.957031 2.890625 -7.625 C 2.367188 -8.019531 1.945312 -8.582031 1.625 -9.3125 C 1.3125 -10.039062 1.15625 -10.875 1.15625 -11.8125 C 1.15625 -13.644531 1.726562 -15.113281 2.875 -16.21875 C 4.050781 -17.34375 5.710938 -17.90625 7.859375 -17.90625 C 10.742188 -17.90625 12.71875 -16.753906 13.78125 -14.453125 C 14.332031 -13.265625 14.609375 -11.828125 14.609375 -10.140625 C 14.609375 -8.453125 14.375 -6.925781 13.90625 -5.5625 C 12.894531 -2.625 11.03125 -0.660156 8.3125 0.328125 C 7.082031 0.765625 5.722656 0.984375 4.234375 0.984375 C 3.941406 0.984375 3.644531 0.972656 3.34375 0.953125 L 3.25 0.78125 C 5.582031 0.0703125 7.320312 -0.976562 8.46875 -2.375 C 9.4375 -3.5625 10.039062 -5.179688 10.28125 -7.234375 C 10.375 -8.097656 10.421875 -9.113281 10.421875 -10.28125 C 10.421875 -12.488281 10.226562 -14.109375 9.84375 -15.140625 C 9.457031 -16.179688 8.753906 -16.703125 7.734375 -16.703125 C 7.078125 -16.703125 6.539062 -16.484375 6.125 -16.046875 C 5.394531 -15.304688 5.03125 -14.0625 5.03125 -12.3125 C 5.03125 -9.707031 5.738281 -8.320312 7.15625 -8.15625 C 7.300781 -8.125 7.453125 -8.109375 7.609375 -8.109375 Z M 7.609375 -8.109375 "/></g></g></g><g fill="#dfd8d8" fill-opacity="1"><g transform="translate(128.93661, 301.390458)"><g><path d="M 1.328125 -16 C 1.816406 -16.476562 2.398438 -16.71875 3.078125 -16.71875 C 3.765625 -16.71875 4.347656 -16.476562 4.828125 -16 C 5.316406 -15.519531 5.5625 -14.9375 5.5625 -14.25 C 5.5625 -13.5625 5.316406 -12.972656 4.828125 -12.484375 C 4.347656 -12.003906 3.765625 -11.765625 3.078125 -11.765625 C 2.398438 -11.765625 1.816406 -12.003906 1.328125 -12.484375 C 0.847656 -12.972656 0.609375 -13.5625 0.609375 -14.25 C 0.609375 -14.9375 0.847656 -15.519531 1.328125 -16 Z M 3.921875 -15.09375 C 3.691406 -15.320312 3.40625 -15.4375 3.0625 -15.4375 C 2.726562 -15.4375 2.445312 -15.320312 2.21875 -15.09375 C 2 -14.875 1.890625 -14.59375 1.890625 -14.25 C 1.890625 -13.914062 2 -13.628906 2.21875 -13.390625 C 2.445312 -13.160156 2.726562 -13.046875 3.0625 -13.046875 C 3.40625 -13.046875 3.691406 -13.160156 3.921875 -13.390625 C 4.160156 -13.628906 4.28125 -13.914062 4.28125 -14.25 C 4.28125 -14.59375 4.160156 -14.875 3.921875 -15.09375 Z M 3.921875 -15.09375 "/></g></g></g><g fill="#dfd8d8" fill-opacity="1"><g transform="translate(137.272515, 301.390458)"><g/></g></g><g fill="#dfd8d8" fill-opacity="1"><g transform="translate(145.759512, 301.390458)"><g><path d="M 12.71875 0 L 0.859375 0 L 0.859375 -0.25 L 1.15625 -0.25 C 1.539062 -0.25 1.863281 -0.375 2.125 -0.625 C 2.382812 -0.875 2.523438 -1.1875 2.546875 -1.5625 L 2.546875 -13.546875 C 2.523438 -13.921875 2.382812 -14.234375 2.125 -14.484375 C 1.863281 -14.734375 1.539062 -14.859375 1.15625 -14.859375 L 0.859375 -14.859375 L 0.859375 -15.109375 L 9.71875 -15.109375 C 10.175781 -15.109375 10.671875 -15.148438 11.203125 -15.234375 C 11.742188 -15.316406 12.125 -15.398438 12.34375 -15.484375 L 12.34375 -11.484375 L 12.09375 -11.484375 L 12.09375 -11.71875 C 12.09375 -12.457031 11.890625 -13.035156 11.484375 -13.453125 C 11.078125 -13.867188 10.515625 -14.085938 9.796875 -14.109375 L 6.171875 -14.109375 L 6.171875 -7.984375 L 9.046875 -7.984375 C 9.617188 -8.003906 10.078125 -8.195312 10.421875 -8.5625 C 10.773438 -8.9375 10.953125 -9.40625 10.953125 -9.96875 L 10.953125 -10.15625 L 11.203125 -10.15625 L 11.203125 -4.8125 L 10.953125 -4.8125 L 10.953125 -4.984375 C 10.953125 -5.773438 10.660156 -6.347656 10.078125 -6.703125 C 9.773438 -6.890625 9.4375 -6.984375 9.0625 -6.984375 L 6.171875 -6.984375 L 6.171875 -1 L 9.1875 -1 C 10.226562 -1.019531 11.113281 -1.34375 11.84375 -1.96875 C 12.582031 -2.601562 13.117188 -3.492188 13.453125 -4.640625 L 13.671875 -4.640625 Z M 12.71875 0 "/></g></g></g><g fill="#dfd8d8" fill-opacity="1"><g transform="translate(162.12855, 301.390458)"><g><path d="M 15.6875 -13.109375 C 17.21875 -11.773438 17.984375 -9.921875 17.984375 -7.546875 C 17.984375 -5.179688 17.21875 -3.332031 15.6875 -2 C 14.164062 -0.664062 12.050781 0 9.34375 0 L 0.828125 0 L 0.828125 -0.25 L 1.15625 -0.25 C 1.539062 -0.25 1.867188 -0.382812 2.140625 -0.65625 C 2.410156 -0.925781 2.550781 -1.242188 2.5625 -1.609375 L 2.5625 -13.546875 C 2.53125 -13.921875 2.378906 -14.234375 2.109375 -14.484375 C 1.847656 -14.734375 1.523438 -14.859375 1.140625 -14.859375 L 0.828125 -14.859375 L 0.828125 -15.109375 L 9.34375 -15.109375 C 12.050781 -15.109375 14.164062 -14.441406 15.6875 -13.109375 Z M 9.046875 -1 C 10.617188 -1 11.863281 -1.578125 12.78125 -2.734375 C 13.695312 -3.898438 14.15625 -5.503906 14.15625 -7.546875 C 14.15625 -9.597656 13.695312 -11.207031 12.78125 -12.375 C 11.863281 -13.539062 10.617188 -14.125 9.046875 -14.125 L 6.203125 -14.125 L 6.203125 -1 Z M 9.046875 -1 "/></g></g></g><g fill="#dfd8d8" fill-opacity="1"><g transform="translate(183.156311, 301.390458)"><g><path d="M 0.859375 -0.25 L 1.15625 -0.25 C 1.5625 -0.25 1.90625 -0.378906 2.1875 -0.640625 C 2.476562 -0.898438 2.625 -1.21875 2.625 -1.59375 L 2.625 -13.53125 C 2.625 -13.894531 2.476562 -14.207031 2.1875 -14.46875 C 1.90625 -14.726562 1.5625 -14.859375 1.15625 -14.859375 L 0.859375 -14.859375 L 0.859375 -15.109375 L 8.015625 -15.109375 L 8.015625 -14.859375 L 7.703125 -14.859375 C 7.316406 -14.859375 6.976562 -14.734375 6.6875 -14.484375 C 6.40625 -14.234375 6.257812 -13.921875 6.25 -13.546875 L 6.25 -1.59375 C 6.257812 -1.195312 6.40625 -0.875 6.6875 -0.625 C 6.976562 -0.375 7.316406 -0.25 7.703125 -0.25 L 8.015625 -0.25 L 8.015625 0 L 0.859375 0 Z M 0.859375 -0.25 "/></g></g></g><g fill="#dfd8d8" fill-opacity="1"><g transform="translate(194.211899, 301.390458)"><g><path d="M 9.921875 0.328125 C 7.097656 0.304688 4.878906 -0.394531 3.265625 -1.78125 C 1.660156 -3.164062 0.859375 -5.09375 0.859375 -7.5625 C 0.859375 -10.03125 1.660156 -11.957031 3.265625 -13.34375 C 4.867188 -14.738281 7.085938 -15.4375 9.921875 -15.4375 C 12.140625 -15.4375 14.03125 -15.050781 15.59375 -14.28125 L 15.59375 -10.28125 L 15.421875 -10.28125 C 14.992188 -11.769531 14.34375 -12.832031 13.46875 -13.46875 C 12.601562 -14.113281 11.503906 -14.4375 10.171875 -14.4375 C 8.390625 -14.4375 7.03125 -13.828125 6.09375 -12.609375 C 5.15625 -11.390625 4.6875 -9.722656 4.6875 -7.609375 C 4.6875 -5.503906 5.144531 -3.832031 6.0625 -2.59375 C 7.019531 -1.320312 8.320312 -0.6875 9.96875 -0.6875 C 11.164062 -0.6875 12.148438 -0.867188 12.921875 -1.234375 C 13.691406 -1.597656 14.300781 -2.1875 14.75 -3 C 15.207031 -3.820312 15.546875 -4.929688 15.765625 -6.328125 L 15.9375 -6.328125 L 16.25 -2.515625 C 15.726562 -1.660156 14.929688 -0.972656 13.859375 -0.453125 C 12.796875 0.0664062 11.484375 0.328125 9.921875 0.328125 Z M 9.921875 0.328125 "/></g></g></g><g fill="#dfd8d8" fill-opacity="1"><g transform="translate(213.577635, 301.390458)"><g><path d="M 0.859375 -0.25 L 1.15625 -0.25 C 1.5625 -0.25 1.90625 -0.378906 2.1875 -0.640625 C 2.476562 -0.898438 2.625 -1.21875 2.625 -1.59375 L 2.625 -13.53125 C 2.625 -13.894531 2.476562 -14.207031 2.1875 -14.46875 C 1.90625 -14.726562 1.5625 -14.859375 1.15625 -14.859375 L 0.859375 -14.859375 L 0.859375 -15.109375 L 8.015625 -15.109375 L 8.015625 -14.859375 L 7.703125 -14.859375 C 7.316406 -14.859375 6.976562 -14.734375 6.6875 -14.484375 C 6.40625 -14.234375 6.257812 -13.921875 6.25 -13.546875 L 6.25 -1.59375 C 6.257812 -1.195312 6.40625 -0.875 6.6875 -0.625 C 6.976562 -0.375 7.316406 -0.25 7.703125 -0.25 L 8.015625 -0.25 L 8.015625 0 L 0.859375 0 Z M 0.859375 -0.25 "/></g></g></g><g fill="#dfd8d8" fill-opacity="1"><g transform="translate(224.633223, 301.390458)"><g><path d="M 9.546875 -16.703125 L 9.375 -16.875 C 10.09375 -18.113281 11.289062 -19.488281 12.96875 -21 C 13.789062 -20.582031 14.363281 -19.90625 14.6875 -18.96875 C 12.957031 -17.851562 11.242188 -17.097656 9.546875 -16.703125 Z M 0.875 -7.546875 C 0.875 -9.972656 1.6875 -11.894531 3.3125 -13.3125 C 4.9375 -14.726562 7.09375 -15.4375 9.78125 -15.4375 C 12.476562 -15.4375 14.640625 -14.726562 16.265625 -13.3125 C 17.898438 -11.894531 18.71875 -9.972656 18.71875 -7.546875 C 18.71875 -5.128906 17.898438 -3.210938 16.265625 -1.796875 C 14.640625 -0.378906 12.484375 0.328125 9.796875 0.328125 C 7.109375 0.328125 4.945312 -0.378906 3.3125 -1.796875 C 1.6875 -3.210938 0.875 -5.128906 0.875 -7.546875 Z M 4.734375 -7.546875 C 4.734375 -5.429688 5.191406 -3.757812 6.109375 -2.53125 C 7.023438 -1.300781 8.25 -0.6875 9.78125 -0.6875 C 11.320312 -0.6875 12.546875 -1.300781 13.453125 -2.53125 C 14.367188 -3.757812 14.828125 -5.429688 14.828125 -7.546875 C 14.828125 -9.671875 14.367188 -11.347656 13.453125 -12.578125 C 12.546875 -13.816406 11.320312 -14.4375 9.78125 -14.4375 C 8.25 -14.4375 7.023438 -13.816406 6.109375 -12.578125 C 5.191406 -11.347656 4.734375 -9.671875 4.734375 -7.546875 Z M 4.734375 -7.546875 "/></g></g></g><g fill="#dfd8d8" fill-opacity="1"><g transform="translate(246.39127, 301.390458)"><g><path d="M 12.046875 -15.109375 L 19.125 -15.109375 L 19.125 -14.859375 L 18.6875 -14.859375 C 18.300781 -14.859375 17.976562 -14.738281 17.71875 -14.5 C 17.457031 -14.269531 17.316406 -13.96875 17.296875 -13.59375 L 17.296875 -2.59375 C 17.296875 -1.550781 17.363281 -0.695312 17.5 -0.03125 L 17.5625 0.328125 L 17.328125 0.328125 L 5.765625 -9.875 L 5.765625 -1.53125 C 5.785156 -1.164062 5.925781 -0.859375 6.1875 -0.609375 C 6.445312 -0.367188 6.769531 -0.25 7.15625 -0.25 L 7.578125 -0.25 L 7.578125 0 L 0.53125 0 L 0.53125 -0.25 L 0.9375 -0.25 C 1.320312 -0.25 1.644531 -0.367188 1.90625 -0.609375 C 2.175781 -0.859375 2.3125 -1.164062 2.3125 -1.53125 L 2.3125 -12.625 C 2.3125 -13.625 2.242188 -14.453125 2.109375 -15.109375 L 2.0625 -15.46875 L 2.296875 -15.4375 L 13.828125 -5.296875 L 13.828125 -13.578125 C 13.828125 -13.941406 13.695312 -14.242188 13.4375 -14.484375 C 13.175781 -14.734375 12.851562 -14.859375 12.46875 -14.859375 L 12.046875 -14.859375 Z M 12.046875 -15.109375 "/></g></g></g></svg>